<svg xmlns="http://www.w3.org/2000/svg" width="551" height="551" fill="none"><g clip-path="url(#a)"><rect width="550" height="550" x=".694" y=".81" fill="url(#b)" rx="10"/><mask id="d" width="480" height="480" x="36" y="36" maskUnits="userSpaceOnUse" style="mask-type:alpha"><circle cx="275.694" cy="275.81" r="239.317" fill="url(#c)"/></mask><g stroke="#fff" stroke-opacity=".3" mask="url(#d)"><path d="M49.352 36.492v465.48m464.979.5H48.851m93.597-465.98v465.48m371.883-371.883H48.851m465.48-93.097H48.851m465.48 186.193H48.851m465.48 93.095H48.851m465.48 93.096H48.851M235.544 36.492v465.48m93.094-465.48v465.48m93.097-465.48v465.48m93.096-465.48v465.48"/></g><g filter="url(#e)"><ellipse cx="275.694" cy="330.502" fill="#EB214B" rx="177.884" ry="169.692"/></g><path fill="url(#f)" fill-opacity=".8" d="M27.982 135.814c0-5.523 4.477-10 10-10h480.855c5.523 0 10 4.477 10 10V550.81H27.982V135.814z"/><path stroke="url(#g)" stroke-opacity=".2" d="M37.982 126.314h480.855a9.5 9.5 0 0 1 9.5 9.5V550.31H28.482V135.814a9.5 9.5 0 0 1 9.5-9.5z"/><path fill="url(#h)" fill-opacity=".5" d="M53.03 218.81c0-5.523 4.477-10 10-10h430.76c5.522 0 10 4.477 10 10v332H53.03v-332z"/><path stroke="url(#i)" stroke-opacity=".2" d="M63.03 209.31h430.76a9.5 9.5 0 0 1 9.5 9.5v331.5H53.53v-331.5a9.5 9.5 0 0 1 9.5-9.5z"/><path fill="url(#j)" fill-opacity=".15" stroke="#3F3B3D" d="M63.03 209.31h430.76a9.5 9.5 0 0 1 9.5 9.5v76.835H53.53V218.81a9.5 9.5 0 0 1 9.5-9.5z"/><rect width="50.717" height="21.116" x="450.628" y="158.919" fill="#fff" fill-opacity=".1" stroke="#484848" stroke-width=".782" rx="10.558"/><path fill="#fff" fill-opacity=".3" d="M463.643 173.127c-.72 0-1.333-.157-1.84-.47a3.098 3.098 0 0 1-1.165-1.32c-.267-.563-.4-1.217-.4-1.96 0-.743.133-1.397.4-1.96a3.062 3.062 0 0 1 1.165-1.315c.507-.317 1.12-.475 1.84-.475.717 0 1.328.158 1.835.475.51.313.898.752 1.165 1.315s.4 1.217.4 1.96c0 .743-.133 1.397-.4 1.96a3.06 3.06 0 0 1-1.165 1.32c-.507.313-1.118.47-1.835.47zm0-.995c.51.007.933-.105 1.27-.335.34-.233.595-.557.765-.97.17-.417.255-.9.255-1.45 0-.55-.085-1.03-.255-1.44a2.093 2.093 0 0 0-.765-.965c-.337-.23-.76-.347-1.27-.35-.51-.007-.935.105-1.275.335-.337.23-.59.553-.76.97-.17.417-.257.9-.26 1.45-.003.55.08 1.032.25 1.445.17.41.425.73.765.96.343.23.77.347 1.28.35zm4.397.845v-7.2h1.06l3.545 5.35v-5.35h1.06v7.2h-1.06l-3.545-5.355v5.355h-1.06z"/><circle cx="490.319" cy="169.49" r="8.68" fill="#fff"/><circle cx="96.626" cy="252.477" r="22.017" fill="#DC1F48" fill-opacity=".2"/><circle cx="96.626" cy="252.477" r="19.335" fill="#DC1F48"/><path stroke="#fff" stroke-linecap="round" stroke-linejoin="round" d="m96.572 252.631 9-9m-2.635 2.635a9.019 9.019 0 1 0 1.753 2.484"/><path stroke="#fff" stroke-linecap="round" stroke-linejoin="round" d="M99.75 249.453a4.49 4.49 0 0 0-7.496 1.972 4.493 4.493 0 0 0 5.39 5.571 4.494 4.494 0 0 0 3.418-4.618"/><path fill="#fff" d="M144.553 259.247c-.918 0-1.746-.156-2.484-.468a4.745 4.745 0 0 1-1.818-1.332 4.469 4.469 0 0 1-.927-2.061l1.656-.261c.21.816.645 1.455 1.305 1.917.666.456 1.449.684 2.349.684.582 0 1.107-.09 1.575-.27.474-.186.849-.45 1.125-.792s.414-.747.414-1.215c0-.288-.051-.534-.153-.738a1.476 1.476 0 0 0-.405-.531 2.392 2.392 0 0 0-.576-.378 4.331 4.331 0 0 0-.675-.252l-3.303-.981a7.093 7.093 0 0 1-1.044-.405 3.812 3.812 0 0 1-.9-.621 2.83 2.83 0 0 1-.63-.9c-.156-.354-.234-.771-.234-1.251 0-.768.198-1.422.594-1.962.402-.546.945-.963 1.629-1.251.684-.288 1.455-.429 2.313-.423.87.006 1.647.162 2.331.468.69.3 1.26.732 1.71 1.296.456.564.762 1.239.918 2.025l-1.701.297a2.842 2.842 0 0 0-.603-1.359 2.996 2.996 0 0 0-1.152-.882 3.732 3.732 0 0 0-1.521-.324 3.642 3.642 0 0 0-1.431.252 2.481 2.481 0 0 0-1.017.729c-.252.306-.378.66-.378 1.062 0 .396.114.717.342.963.228.24.507.432.837.576.336.138.663.252.981.342l2.466.711c.282.078.606.186.972.324.372.138.732.333 1.08.585a2.9 2.9 0 0 1 .864.99c.228.408.342.924.342 1.548s-.126 1.179-.378 1.665a3.447 3.447 0 0 1-1.035 1.224c-.444.324-.96.57-1.548.738a6.63 6.63 0 0 1-1.89.261zm10.834 0c-.984 0-1.821-.219-2.511-.657a4.275 4.275 0 0 1-1.566-1.827c-.36-.774-.546-1.656-.558-2.646.012-1.014.201-1.905.567-2.673.372-.774.903-1.377 1.593-1.809.69-.432 1.521-.648 2.493-.648 1.026 0 1.908.252 2.646.756a3.638 3.638 0 0 1 1.494 2.07l-1.584.477c-.204-.564-.537-1.002-.999-1.314a2.722 2.722 0 0 0-1.575-.468c-.666 0-1.215.156-1.647.468-.432.306-.753.732-.963 1.278-.21.54-.318 1.161-.324 1.863.012 1.08.261 1.953.747 2.619.492.66 1.221.99 2.187.99.636 0 1.164-.144 1.584-.432.42-.294.738-.717.954-1.269l1.62.423c-.336.906-.861 1.599-1.575 2.079-.714.48-1.575.72-2.583.72zm8.67 0c-.726 0-1.335-.132-1.827-.396a2.821 2.821 0 0 1-1.107-1.062 2.89 2.89 0 0 1-.369-1.44c0-.51.096-.951.288-1.323.198-.378.474-.69.828-.936.354-.252.777-.45 1.269-.594.462-.126.978-.234 1.548-.324a53.071 53.071 0 0 1 1.746-.261c.588-.078 1.137-.153 1.647-.225l-.576.333c.018-.864-.156-1.503-.522-1.917-.36-.414-.984-.621-1.872-.621-.588 0-1.104.135-1.548.405-.438.264-.747.696-.927 1.296l-1.521-.459c.234-.852.687-1.521 1.359-2.007.672-.486 1.557-.729 2.655-.729.882 0 1.638.159 2.268.477a2.772 2.772 0 0 1 1.368 1.422c.138.3.225.627.261.981.036.348.054.714.054 1.098v6.012h-1.422v-2.331l.333.216c-.366.786-.879 1.38-1.539 1.782-.654.402-1.452.603-2.394.603zm.243-1.341c.576 0 1.074-.102 1.494-.306.426-.21.768-.483 1.026-.819.258-.342.426-.714.504-1.116.09-.3.138-.633.144-.999.012-.372.018-.657.018-.855l.558.243c-.522.072-1.035.141-1.539.207s-.981.138-1.431.216c-.45.072-.855.159-1.215.261a3.958 3.958 0 0 0-.747.324 1.697 1.697 0 0 0-.558.513c-.138.204-.207.459-.207.765 0 .264.066.516.198.756.138.24.348.435.63.585.288.15.663.225 1.125.225zm14.04 1.071v-4.869c0-.462-.042-.906-.126-1.332a3.34 3.34 0 0 0-.423-1.143 2.186 2.186 0 0 0-.81-.81c-.336-.198-.762-.297-1.278-.297a2.82 2.82 0 0 0-1.098.207 2.148 2.148 0 0 0-.837.612 2.97 2.97 0 0 0-.549 1.044c-.126.414-.189.903-.189 1.467l-1.053-.324c0-.942.168-1.749.504-2.421.342-.678.819-1.197 1.431-1.557.618-.366 1.344-.549 2.178-.549.63 0 1.167.099 1.611.297.444.198.813.462 1.107.792.294.324.525.69.693 1.098.168.402.285.813.351 1.233.072.414.108.807.108 1.179v5.373h-1.62zm-6.93 0v-9.72h1.44v2.601h.18v7.119h-1.62zm18.588.27c-.984 0-1.821-.219-2.511-.657a4.275 4.275 0 0 1-1.566-1.827c-.36-.774-.546-1.656-.558-2.646.012-1.014.201-1.905.567-2.673.372-.774.903-1.377 1.593-1.809.69-.432 1.521-.648 2.493-.648 1.026 0 1.908.252 2.646.756a3.638 3.638 0 0 1 1.494 2.07l-1.584.477c-.204-.564-.537-1.002-.999-1.314a2.722 2.722 0 0 0-1.575-.468c-.666 0-1.215.156-1.647.468-.432.306-.753.732-.963 1.278-.21.54-.318 1.161-.324 1.863.012 1.08.261 1.953.747 2.619.492.66 1.221.99 2.187.99.636 0 1.164-.144 1.584-.432.42-.294.738-.717.954-1.269l1.62.423c-.336.906-.861 1.599-1.575 2.079-.714.48-1.575.72-2.583.72zm9.871 0c-.966 0-1.8-.219-2.502-.657a4.354 4.354 0 0 1-1.611-1.818c-.378-.774-.567-1.662-.567-2.664 0-1.02.192-1.914.576-2.682a4.285 4.285 0 0 1 1.629-1.791c.702-.432 1.527-.648 2.475-.648.972 0 1.809.219 2.511.657a4.216 4.216 0 0 1 1.611 1.809c.378.768.567 1.653.567 2.655 0 1.014-.189 1.908-.567 2.682a4.345 4.345 0 0 1-1.62 1.809c-.702.432-1.536.648-2.502.648zm0-1.521c1.008 0 1.758-.336 2.25-1.008.492-.672.738-1.542.738-2.61 0-1.098-.249-1.971-.747-2.619-.498-.654-1.245-.981-2.241-.981-.678 0-1.236.153-1.674.459-.438.306-.765.729-.981 1.269-.216.54-.324 1.164-.324 1.872 0 1.092.252 1.968.756 2.628.504.66 1.245.99 2.223.99zm18.29 1.251.009-6.219c0-.726-.195-1.293-.585-1.701-.384-.414-.885-.621-1.503-.621-.36 0-.702.084-1.026.252-.324.162-.588.42-.792.774-.204.348-.306.795-.306 1.341l-.846-.342c-.012-.69.129-1.293.423-1.809.3-.522.708-.927 1.224-1.215a3.52 3.52 0 0 1 1.746-.432c1.014 0 1.812.309 2.394.927.582.612.873 1.437.873 2.475l-.009 6.57h-1.602zm-11.628 0v-9.72h1.431v2.601h.18v7.119h-1.611zm5.823 0 .009-6.156c0-.744-.192-1.326-.576-1.746-.384-.426-.894-.639-1.53-.639-.63 0-1.14.216-1.53.648-.39.432-.585 1.005-.585 1.719l-.846-.504c0-.63.15-1.194.45-1.692.3-.498.708-.888 1.224-1.17.516-.288 1.101-.432 1.755-.432.654 0 1.224.138 1.71.414.486.276.861.672 1.125 1.188.264.51.396 1.119.396 1.827l-.009 6.543h-1.593zm14.224.27c-.912 0-1.68-.225-2.304-.675-.624-.456-1.098-1.071-1.422-1.845-.318-.78-.477-1.653-.477-2.619 0-.978.159-1.854.477-2.628.324-.774.798-1.383 1.422-1.827.63-.444 1.401-.666 2.313-.666.9 0 1.674.225 2.322.675.654.444 1.155 1.053 1.503 1.827.348.774.522 1.647.522 2.619 0 .972-.174 1.845-.522 2.619-.348.774-.849 1.389-1.503 1.845-.648.45-1.425.675-2.331.675zm-4.473 4.05v-14.04h1.431v7.155h.18v6.885h-1.611zm4.275-5.517c.642 0 1.173-.162 1.593-.486.42-.324.735-.762.945-1.314.21-.558.315-1.182.315-1.872 0-.684-.105-1.302-.315-1.854-.204-.552-.522-.99-.954-1.314-.426-.324-.969-.486-1.629-.486-.63 0-1.152.156-1.566.468-.414.306-.723.735-.927 1.287-.204.546-.306 1.179-.306 1.899 0 .708.099 1.341.297 1.899.204.552.516.987.936 1.305.42.312.957.468 1.611.468zm6.707 1.197v-13.23h1.602v13.23h-1.602zm8.514.27c-.954 0-1.788-.21-2.502-.63a4.413 4.413 0 0 1-1.656-1.773c-.396-.762-.594-1.65-.594-2.664 0-1.062.195-1.98.585-2.754.39-.78.933-1.38 1.629-1.8.702-.426 1.524-.639 2.466-.639.978 0 1.809.225 2.493.675.69.45 1.206 1.092 1.548 1.926.348.834.498 1.827.45 2.979h-1.62v-.576c-.018-1.194-.261-2.085-.729-2.673-.468-.594-1.164-.891-2.088-.891-.99 0-1.743.318-2.259.954-.516.636-.774 1.548-.774 2.736 0 1.146.258 2.034.774 2.664.516.63 1.251.945 2.205.945.642 0 1.2-.147 1.674-.441.474-.294.846-.717 1.116-1.269l1.539.531c-.378.858-.948 1.524-1.71 1.998-.756.468-1.605.702-2.547.702zm-3.591-4.68v-1.287h7.182v1.287h-7.182zm15.441 4.41a7.203 7.203 0 0 1-1.71.135 3.795 3.795 0 0 1-1.494-.333 2.148 2.148 0 0 1-.999-.972 2.876 2.876 0 0 1-.315-1.161 44.706 44.706 0 0 1-.018-1.341v-8.748h1.602v8.676c0 .396.003.735.009 1.017.012.282.075.525.189.729.216.384.558.609 1.026.675.474.066 1.044.048 1.71-.054v1.377zm-6.507-8.397v-1.323h6.507v1.323h-6.507zm12.288 8.667c-.954 0-1.788-.21-2.502-.63a4.413 4.413 0 0 1-1.656-1.773c-.396-.762-.594-1.65-.594-2.664 0-1.062.195-1.98.585-2.754.39-.78.933-1.38 1.629-1.8.702-.426 1.524-.639 2.466-.639.978 0 1.809.225 2.493.675.69.45 1.206 1.092 1.548 1.926.348.834.498 1.827.45 2.979h-1.62v-.576c-.018-1.194-.261-2.085-.729-2.673-.468-.594-1.164-.891-2.088-.891-.99 0-1.743.318-2.259.954-.516.636-.774 1.548-.774 2.736 0 1.146.258 2.034.774 2.664.516.63 1.251.945 2.205.945.642 0 1.2-.147 1.674-.441.474-.294.846-.717 1.116-1.269l1.539.531c-.378.858-.948 1.524-1.71 1.998-.756.468-1.605.702-2.547.702zm-3.591-4.68v-1.287h7.182v1.287h-7.182zm13.83 4.68c-.906 0-1.683-.225-2.331-.675-.648-.456-1.149-1.071-1.503-1.845-.348-.774-.522-1.647-.522-2.619 0-.972.174-1.845.522-2.619.354-.774.855-1.383 1.503-1.827.648-.45 1.422-.675 2.322-.675.918 0 1.689.222 2.313.666.624.444 1.095 1.053 1.413 1.827.324.774.486 1.65.486 2.628 0 .966-.162 1.839-.486 2.619-.318.774-.789 1.389-1.413 1.845-.624.45-1.392.675-2.304.675zm.198-1.467c.654 0 1.191-.156 1.611-.468.42-.318.729-.753.927-1.305.204-.558.306-1.191.306-1.899 0-.72-.102-1.353-.306-1.899-.198-.552-.504-.981-.918-1.287-.414-.312-.939-.468-1.575-.468-.66 0-1.206.162-1.638.486-.426.324-.744.762-.954 1.314-.204.552-.306 1.17-.306 1.854 0 .69.105 1.314.315 1.872.21.552.525.99.945 1.314.426.324.957.486 1.593.486zm2.844 1.197v-7.155h-.18v-5.805h1.611v12.96h-1.431zm4.853 0v-1.656h1.602v1.656h-1.602zm0-3.24v-9.72h1.602v9.72h-1.602z"/><path fill="#fff" fill-opacity=".5" d="M78.449 492.561c-.604 0-1.148-.1-1.632-.3a3.16 3.16 0 0 1-1.194-.864 2.837 2.837 0 0 1-.612-1.326l.9-.15c.144.56.448 1 .912 1.32.464.316 1.018.474 1.662.474.424 0 .804-.066 1.14-.198.336-.136.6-.328.792-.576.192-.248.288-.542.288-.882 0-.224-.04-.414-.12-.57a1.151 1.151 0 0 0-.318-.396 1.961 1.961 0 0 0-.432-.258 3.409 3.409 0 0 0-.456-.174l-2.19-.654a3.984 3.984 0 0 1-.732-.288 2.578 2.578 0 0 1-.588-.426 1.825 1.825 0 0 1-.384-.588 2.007 2.007 0 0 1-.138-.768c0-.488.128-.91.384-1.266s.606-.63 1.05-.822c.444-.192.95-.286 1.518-.282.576 0 1.09.102 1.542.306.456.204.832.496 1.128.876.296.376.492.822.588 1.338l-.924.168a2.092 2.092 0 0 0-.414-.978 2.113 2.113 0 0 0-.828-.636 2.672 2.672 0 0 0-1.098-.234c-.388 0-.734.066-1.038.198-.3.128-.538.304-.714.528a1.21 1.21 0 0 0-.264.768c0 .292.08.526.24.702.164.176.364.314.6.414.24.1.472.182.696.246l1.692.498c.176.048.382.118.618.21.24.088.472.216.696.384.228.164.416.38.564.648.148.268.222.608.222 1.02 0 .4-.08.758-.24 1.074a2.208 2.208 0 0 1-.666.798c-.284.216-.618.38-1.002.492-.38.116-.796.174-1.248.174zm7.082 0c-.652 0-1.204-.146-1.656-.438a2.791 2.791 0 0 1-1.032-1.206c-.232-.516-.352-1.108-.36-1.776.008-.68.132-1.276.372-1.788.24-.516.586-.916 1.038-1.2.452-.288 1-.432 1.644-.432.656 0 1.226.16 1.71.48.488.32.822.758 1.002 1.314l-.864.276a1.825 1.825 0 0 0-.726-.9 2.004 2.004 0 0 0-1.128-.324c-.476 0-.87.11-1.182.33a1.92 1.92 0 0 0-.696.906c-.152.388-.23.834-.234 1.338.008.776.188 1.4.54 1.872.352.468.876.702 1.572.702.44 0 .814-.1 1.122-.3.312-.204.548-.5.708-.888l.888.264c-.24.576-.592 1.016-1.056 1.32-.464.3-1.018.45-1.662.45zm5.776 0c-.488 0-.898-.088-1.23-.264a1.79 1.79 0 0 1-.738-.702 1.915 1.915 0 0 1-.246-.954c0-.352.07-.652.21-.9.144-.252.338-.458.582-.618.248-.16.534-.282.858-.366.328-.08.69-.15 1.086-.21.4-.064.79-.118 1.17-.162.384-.048.72-.094 1.008-.138l-.312.192c.012-.64-.112-1.114-.372-1.422-.26-.308-.712-.462-1.356-.462-.444 0-.82.1-1.128.3-.304.2-.518.516-.642.948l-.858-.252c.148-.58.446-1.03.894-1.35.448-.32 1.03-.48 1.746-.48.592 0 1.094.112 1.506.336.416.22.71.54.882.96.08.188.132.398.156.63.024.232.036.468.036.708v4.026h-.786v-1.626l.228.096c-.22.556-.562.98-1.026 1.272-.464.292-1.02.438-1.668.438zm.102-.762c.412 0 .772-.074 1.08-.222.308-.148.556-.35.744-.606.188-.26.31-.552.366-.876.048-.208.074-.436.078-.684.004-.252.006-.44.006-.564l.336.174c-.3.04-.626.08-.978.12-.348.04-.692.086-1.032.138-.336.052-.64.114-.912.186a2.473 2.473 0 0 0-.534.222 1.233 1.233 0 0 0-.426.372.998.998 0 0 0-.162.582c0 .188.046.37.138.546.096.176.248.322.456.438.212.116.492.174.84.174zm9.392.582v-3.306c0-.36-.034-.69-.102-.99a2.283 2.283 0 0 0-.33-.792 1.508 1.508 0 0 0-.582-.528c-.236-.124-.524-.186-.864-.186-.312 0-.588.054-.828.162a1.631 1.631 0 0 0-.6.468c-.16.2-.282.444-.366.732a3.517 3.517 0 0 0-.126.984l-.624-.138c0-.664.116-1.222.348-1.674.232-.452.552-.794.96-1.026.408-.232.876-.348 1.404-.348.388 0 .726.06 1.014.18.292.12.538.282.738.486.204.204.368.438.492.702.124.26.214.538.27.834.056.292.084.584.084.876v3.564h-.888zm-4.686 0v-6.48h.798v1.596h.09v4.884h-.888zm13.061 0a4.318 4.318 0 0 1-1.08.09 2.396 2.396 0 0 1-.948-.228 1.368 1.368 0 0 1-.63-.636 1.869 1.869 0 0 1-.192-.726c-.008-.248-.012-.53-.012-.846v-5.934h.876v5.898c0 .272.002.5.006.684.008.18.05.34.126.48a.903.903 0 0 0 .684.48c.316.052.706.04 1.17-.036v.774zm-4.248-5.724v-.756h4.248v.756h-4.248zm5.645-1.986v-.99h.882v.99h-.882zm0 7.71v-6.48h.882v6.48h-.882zm10.409 0 .006-4.254c0-.5-.14-.892-.42-1.176-.276-.288-.628-.432-1.056-.432-.244 0-.482.056-.714.168a1.377 1.377 0 0 0-.576.54c-.148.248-.222.572-.222.972l-.522-.15c-.012-.464.078-.87.27-1.218.196-.348.464-.618.804-.81a2.31 2.31 0 0 1 1.164-.294c.652 0 1.174.202 1.566.606.392.4.588.942.588 1.626l-.006 4.422h-.882zm-7.734 0v-6.48h.792v1.596h.096v4.884h-.888zm3.876 0 .006-4.194c0-.516-.138-.922-.414-1.218-.272-.3-.632-.45-1.08-.45-.448 0-.81.154-1.086.462-.276.304-.414.71-.414 1.218l-.528-.288c0-.416.098-.788.294-1.116.196-.332.464-.592.804-.78.34-.192.726-.288 1.158-.288.412 0 .778.088 1.098.264.324.176.578.432.762.768.184.336.276.744.276 1.224l-.006 4.398h-.87zm9.008.18c-.632 0-1.18-.14-1.644-.42a2.85 2.85 0 0 1-1.074-1.182c-.256-.508-.384-1.104-.384-1.788 0-.708.126-1.32.378-1.836a2.81 2.81 0 0 1 1.062-1.194c.46-.28 1.002-.42 1.626-.42.64 0 1.186.148 1.638.444.452.292.794.712 1.026 1.26.232.548.338 1.202.318 1.962h-.9v-.312c-.016-.84-.198-1.474-.546-1.902-.344-.428-.848-.642-1.512-.642-.696 0-1.23.226-1.602.678-.368.452-.552 1.096-.552 1.932 0 .816.184 1.45.552 1.902.372.448.898.672 1.578.672.464 0 .868-.106 1.212-.318.348-.216.622-.526.822-.93l.822.318a2.94 2.94 0 0 1-1.134 1.314 3.13 3.13 0 0 1-1.686.462zm-2.478-3.174v-.738h4.95v.738h-4.95z"/><path fill="#fff" d="M136.721 492.381v-7.656l-1.626.978v-.99l1.626-.972h.894v8.64h-.894zm6.973 0v-1.674h-4.044v-.84l2.892-6.126h.99l-2.892 6.126h3.054v-2.52h.888v2.52h.942v.84h-.942v1.674h-.888zm5.634.174c-.76 0-1.386-.164-1.878-.492a2.05 2.05 0 0 1-.9-1.368l.9-.15c.096.368.314.662.654.882.344.216.768.324 1.272.324.492 0 .88-.102 1.164-.306a.994.994 0 0 0 .426-.846c0-.2-.046-.362-.138-.486-.088-.128-.27-.246-.546-.354a12.821 12.821 0 0 0-1.236-.384c-.588-.16-1.048-.32-1.38-.48-.332-.16-.568-.344-.708-.552-.14-.212-.21-.47-.21-.774 0-.368.104-.69.312-.966.208-.28.496-.496.864-.648.368-.156.796-.234 1.284-.234s.924.08 1.308.24c.388.156.7.376.936.66.236.284.376.614.42.99l-.9.162c-.06-.38-.25-.68-.57-.9-.316-.224-.718-.34-1.206-.348-.46-.012-.834.076-1.122.264-.288.184-.432.43-.432.738 0 .172.052.32.156.444.104.12.292.234.564.342.276.108.668.226 1.176.354.596.152 1.064.312 1.404.48.34.168.582.366.726.594.144.228.216.51.216.846 0 .612-.228 1.094-.684 1.446-.452.348-1.076.522-1.872.522z"/><path fill="#fff" fill-opacity=".5" d="M170.417 492.381v-8.64h.882v8.64h-.882zm6.208 0a4.318 4.318 0 0 1-1.08.09 2.396 2.396 0 0 1-.948-.228 1.368 1.368 0 0 1-.63-.636 1.869 1.869 0 0 1-.192-.726c-.008-.248-.012-.53-.012-.846v-5.934h.876v5.898c0 .272.002.5.006.684.008.18.05.34.126.48a.903.903 0 0 0 .684.48c.316.052.706.04 1.17-.036v.774zm-4.248-5.724v-.756h4.248v.756h-4.248zm8.033 5.904c-.632 0-1.18-.14-1.644-.42a2.85 2.85 0 0 1-1.074-1.182c-.256-.508-.384-1.104-.384-1.788 0-.708.126-1.32.378-1.836a2.81 2.81 0 0 1 1.062-1.194c.46-.28 1.002-.42 1.626-.42.64 0 1.186.148 1.638.444.452.292.794.712 1.026 1.26.232.548.338 1.202.318 1.962h-.9v-.312c-.016-.84-.198-1.474-.546-1.902-.344-.428-.848-.642-1.512-.642-.696 0-1.23.226-1.602.678-.368.452-.552 1.096-.552 1.932 0 .816.184 1.45.552 1.902.372.448.898.672 1.578.672.464 0 .868-.106 1.212-.318.348-.216.622-.526.822-.93l.822.318a2.94 2.94 0 0 1-1.134 1.314 3.13 3.13 0 0 1-1.686.462zm-2.478-3.174v-.738h4.95v.738h-4.95zm14.307 2.994.006-4.254c0-.5-.14-.892-.42-1.176-.276-.288-.628-.432-1.056-.432-.244 0-.482.056-.714.168a1.377 1.377 0 0 0-.576.54c-.148.248-.222.572-.222.972l-.522-.15c-.012-.464.078-.87.27-1.218.196-.348.464-.618.804-.81a2.31 2.31 0 0 1 1.164-.294c.652 0 1.174.202 1.566.606.392.4.588.942.588 1.626l-.006 4.422h-.882zm-7.734 0v-6.48h.792v1.596h.096v4.884h-.888zm3.876 0 .006-4.194c0-.516-.138-.922-.414-1.218-.272-.3-.632-.45-1.08-.45-.448 0-.81.154-1.086.462-.276.304-.414.71-.414 1.218l-.528-.288c0-.416.098-.788.294-1.116.196-.332.464-.592.804-.78.34-.192.726-.288 1.158-.288.412 0 .778.088 1.098.264.324.176.578.432.762.768.184.336.276.744.276 1.224l-.006 4.398h-.87zm8.72.174c-.76 0-1.386-.164-1.878-.492a2.05 2.05 0 0 1-.9-1.368l.9-.15c.096.368.314.662.654.882.344.216.768.324 1.272.324.492 0 .88-.102 1.164-.306a.994.994 0 0 0 .426-.846c0-.2-.046-.362-.138-.486-.088-.128-.27-.246-.546-.354a12.821 12.821 0 0 0-1.236-.384c-.588-.16-1.048-.32-1.38-.48-.332-.16-.568-.344-.708-.552-.14-.212-.21-.47-.21-.774 0-.368.104-.69.312-.966.208-.28.496-.496.864-.648.368-.156.796-.234 1.284-.234s.924.08 1.308.24c.388.156.7.376.936.66.236.284.376.614.42.99l-.9.162c-.06-.38-.25-.68-.57-.9-.316-.224-.718-.34-1.206-.348-.46-.012-.834.076-1.122.264-.288.184-.432.43-.432.738 0 .172.052.32.156.444.104.12.292.234.564.342.276.108.668.226 1.176.354.596.152 1.064.312 1.404.48.34.168.582.366.726.594.144.228.216.51.216.846 0 .612-.228 1.094-.684 1.446-.452.348-1.076.522-1.872.522zm8.707 0c-.76 0-1.386-.164-1.878-.492a2.05 2.05 0 0 1-.9-1.368l.9-.15c.096.368.314.662.654.882.344.216.768.324 1.272.324.492 0 .88-.102 1.164-.306a.994.994 0 0 0 .426-.846c0-.2-.046-.362-.138-.486-.088-.128-.27-.246-.546-.354a12.821 12.821 0 0 0-1.236-.384c-.588-.16-1.048-.32-1.38-.48-.332-.16-.568-.344-.708-.552-.14-.212-.21-.47-.21-.774 0-.368.104-.69.312-.966.208-.28.496-.496.864-.648.368-.156.796-.234 1.284-.234s.924.08 1.308.24c.388.156.7.376.936.66.236.284.376.614.42.99l-.9.162c-.06-.38-.25-.68-.57-.9-.316-.224-.718-.34-1.206-.348-.46-.012-.834.076-1.122.264-.288.184-.432.43-.432.738 0 .172.052.32.156.444.104.12.292.234.564.342.276.108.668.226 1.176.354.596.152 1.064.312 1.404.48.34.168.582.366.726.594.144.228.216.51.216.846 0 .612-.228 1.094-.684 1.446-.452.348-1.076.522-1.872.522zm6.575.006c-.652 0-1.204-.146-1.656-.438a2.791 2.791 0 0 1-1.032-1.206c-.232-.516-.352-1.108-.36-1.776.008-.68.132-1.276.372-1.788.24-.516.586-.916 1.038-1.2.452-.288 1-.432 1.644-.432.656 0 1.226.16 1.71.48.488.32.822.758 1.002 1.314l-.864.276a1.825 1.825 0 0 0-.726-.9 2.004 2.004 0 0 0-1.128-.324c-.476 0-.87.11-1.182.33a1.92 1.92 0 0 0-.696.906c-.152.388-.23.834-.234 1.338.008.776.188 1.4.54 1.872.352.468.876.702 1.572.702.44 0 .814-.1 1.122-.3.312-.204.548-.5.708-.888l.888.264c-.24.576-.592 1.016-1.056 1.32-.464.3-1.018.45-1.662.45zm5.775 0c-.488 0-.898-.088-1.23-.264a1.79 1.79 0 0 1-.738-.702 1.915 1.915 0 0 1-.246-.954c0-.352.07-.652.21-.9.144-.252.338-.458.582-.618.248-.16.534-.282.858-.366.328-.08.69-.15 1.086-.21.4-.064.79-.118 1.17-.162.384-.048.72-.094 1.008-.138l-.312.192c.012-.64-.112-1.114-.372-1.422-.26-.308-.712-.462-1.356-.462-.444 0-.82.1-1.128.3-.304.2-.518.516-.642.948l-.858-.252c.148-.58.446-1.03.894-1.35.448-.32 1.03-.48 1.746-.48.592 0 1.094.112 1.506.336.416.22.71.54.882.96.08.188.132.398.156.63.024.232.036.468.036.708v4.026h-.786v-1.626l.228.096c-.22.556-.562.98-1.026 1.272-.464.292-1.02.438-1.668.438zm.102-.762c.412 0 .772-.074 1.08-.222.308-.148.556-.35.744-.606.188-.26.31-.552.366-.876.048-.208.074-.436.078-.684.004-.252.006-.44.006-.564l.336.174c-.3.04-.626.08-.978.12-.348.04-.692.086-1.032.138-.336.052-.64.114-.912.186a2.473 2.473 0 0 0-.534.222 1.233 1.233 0 0 0-.426.372.998.998 0 0 0-.162.582c0 .188.046.37.138.546.096.176.248.322.456.438.212.116.492.174.84.174zm9.392.582v-3.306c0-.36-.034-.69-.102-.99a2.283 2.283 0 0 0-.33-.792 1.509 1.509 0 0 0-.582-.528c-.236-.124-.524-.186-.864-.186-.312 0-.588.054-.828.162a1.631 1.631 0 0 0-.6.468c-.16.2-.282.444-.366.732a3.517 3.517 0 0 0-.126.984l-.624-.138c0-.664.116-1.222.348-1.674.232-.452.552-.794.96-1.026.408-.232.876-.348 1.404-.348.388 0 .726.06 1.014.18.292.12.538.282.738.486.204.204.368.438.492.702.124.26.214.538.27.834.056.292.084.584.084.876v3.564h-.888zm-4.686 0v-6.48h.798v1.596h.09v4.884h-.888zm11.811 0v-3.306c0-.36-.034-.69-.102-.99a2.283 2.283 0 0 0-.33-.792 1.509 1.509 0 0 0-.582-.528c-.236-.124-.524-.186-.864-.186-.312 0-.588.054-.828.162a1.631 1.631 0 0 0-.6.468c-.16.2-.282.444-.366.732a3.517 3.517 0 0 0-.126.984l-.624-.138c0-.664.116-1.222.348-1.674.232-.452.552-.794.96-1.026.408-.232.876-.348 1.404-.348.388 0 .726.06 1.014.18.292.12.538.282.738.486.204.204.368.438.492.702.124.26.214.538.27.834.056.292.084.584.084.876v3.564h-.888zm-4.686 0v-6.48h.798v1.596h.09v4.884h-.888zm9.838.18c-.632 0-1.18-.14-1.644-.42a2.85 2.85 0 0 1-1.074-1.182c-.256-.508-.384-1.104-.384-1.788 0-.708.126-1.32.378-1.836a2.81 2.81 0 0 1 1.062-1.194c.46-.28 1.002-.42 1.626-.42.64 0 1.186.148 1.638.444.452.292.794.712 1.026 1.26.232.548.338 1.202.318 1.962h-.9v-.312c-.016-.84-.198-1.474-.546-1.902-.344-.428-.848-.642-1.512-.642-.696 0-1.23.226-1.602.678-.368.452-.552 1.096-.552 1.932 0 .816.184 1.45.552 1.902.372.448.898.672 1.578.672.464 0 .868-.106 1.212-.318.348-.216.622-.526.822-.93l.822.318a2.94 2.94 0 0 1-1.134 1.314 3.13 3.13 0 0 1-1.686.462zm-2.478-3.174v-.738h4.95v.738h-4.95zm9.27 3.174c-.604 0-1.12-.15-1.548-.45a2.919 2.919 0 0 1-.984-1.23c-.228-.516-.342-1.098-.342-1.746 0-.644.112-1.224.336-1.74.228-.516.554-.924.978-1.224.424-.3.932-.45 1.524-.45.608 0 1.12.148 1.536.444.416.296.73.702.942 1.218.216.512.324 1.096.324 1.752 0 .644-.106 1.226-.318 1.746a2.822 2.822 0 0 1-.936 1.23c-.412.3-.916.45-1.512.45zm.09-.822c.46 0 .84-.112 1.14-.336.3-.224.524-.532.672-.924.148-.396.222-.844.222-1.344 0-.508-.074-.956-.222-1.344a1.964 1.964 0 0 0-.672-.918c-.296-.22-.67-.33-1.122-.33-.464 0-.848.114-1.152.342-.304.228-.53.538-.678.93a3.807 3.807 0 0 0-.216 1.32c0 .492.074.936.222 1.332.152.392.378.702.678.93.3.228.676.342 1.128.342zm2.034.642v-4.878h-.096v-3.762h.888v8.64h-.792z"/><path fill="#fff" d="M257.631 492.381v-7.656l-1.626.978v-.99l1.626-.972h.894v8.64h-.894zm2.929-.006.006-.804 3.906-3.528c.336-.304.558-.592.666-.864.112-.276.168-.564.168-.864a1.882 1.882 0 0 0-.93-1.65 1.805 1.805 0 0 0-.954-.258c-.368 0-.696.088-.984.264a1.965 1.965 0 0 0-.684.696 1.826 1.826 0 0 0-.24.942h-.9a2.7 2.7 0 0 1 .372-1.41 2.659 2.659 0 0 1 1.008-.978c.424-.24.904-.36 1.44-.36a2.7 2.7 0 0 1 1.41.372c.42.244.75.576.99.996a2.7 2.7 0 0 1 .366 1.392c0 .36-.044.678-.132.954a2.37 2.37 0 0 1-.402.762c-.18.232-.41.472-.69.72l-3.468 3.132-.138-.36h4.83v.846h-5.64zm9.904.186a2.82 2.82 0 0 1-1.44-.372 2.768 2.768 0 0 1-1.008-1.008 2.82 2.82 0 0 1-.372-1.44v-3.36a2.787 2.787 0 0 1 1.38-2.448 2.82 2.82 0 0 1 1.44-.372c.532 0 1.01.124 1.434.372a2.74 2.74 0 0 1 1.014 1.014c.248.424.372.902.372 1.434v3.36a2.82 2.82 0 0 1-.372 1.44 2.787 2.787 0 0 1-2.448 1.38zm0-.852c.356 0 .68-.086.972-.258.292-.176.524-.41.696-.702.172-.292.258-.614.258-.966v-3.444c0-.356-.086-.68-.258-.972a1.935 1.935 0 0 0-.696-.696 1.847 1.847 0 0 0-.972-.264c-.356 0-.68.088-.972.264a1.935 1.935 0 0 0-.696.696 1.88 1.88 0 0 0-.258.972v3.444c0 .352.086.674.258.966.172.292.404.526.696.702.292.172.616.258.972.258zm4.384 1.926.054-.438c.16.012.276-.02.348-.096a.526.526 0 0 0 .132-.306 2.33 2.33 0 0 0 .012-.414h-.546v-1.266h1.026v1.506c0 .368-.094.644-.282.828-.184.184-.432.246-.744.186zm7.112-1.254v-1.674h-4.044v-.84l2.892-6.126h.99l-2.892 6.126h3.054v-2.52h.888v2.52h.942v.84h-.942v1.674h-.888zm5.824.18c-.448 0-.862-.092-1.242-.276a2.87 2.87 0 0 1-.972-.762 2.969 2.969 0 0 1-.576-1.116l.846-.228c.076.312.214.582.414.81.2.224.434.398.702.522.272.124.556.186.852.186.384 0 .728-.092 1.032-.276.308-.188.552-.436.732-.744.18-.308.27-.646.27-1.014 0-.38-.094-.722-.282-1.026a2.103 2.103 0 0 0-.744-.732 1.962 1.962 0 0 0-1.008-.27c-.408 0-.76.09-1.056.27a2.138 2.138 0 0 0-.708.666l-.804-.336.264-4.494h4.614v.846h-4.224l.438-.414-.234 3.834-.222-.294c.248-.284.548-.506.9-.666.352-.16.722-.24 1.11-.24.532 0 1.012.128 1.44.384a2.819 2.819 0 0 1 1.398 2.472c0 .528-.134 1.012-.402 1.452a3.085 3.085 0 0 1-1.068 1.05 2.823 2.823 0 0 1-1.47.396zm8.18-.18v-1.674h-4.044v-.84l2.892-6.126h.99l-2.892 6.126h3.054v-2.52h.888v2.52h.942v.84h-.942v1.674h-.888zM80.716 325.81v-8.897H77.28v-1.183h8.12v1.183h-3.437v8.897h-1.246zm11.18 0v-3.787c0-.36-.032-.705-.097-1.036a2.59 2.59 0 0 0-.33-.889 1.7 1.7 0 0 0-.63-.63c-.26-.154-.592-.231-.993-.231a2.18 2.18 0 0 0-.854.161 1.66 1.66 0 0 0-.651.476 2.302 2.302 0 0 0-.427.812 3.937 3.937 0 0 0-.147 1.141l-.82-.252c0-.733.131-1.361.393-1.883a2.856 2.856 0 0 1 1.113-1.211c.48-.285 1.045-.427 1.694-.427.49 0 .907.077 1.253.231.345.154.632.359.86.616a2.9 2.9 0 0 1 .54.854c.13.312.221.632.273.959.056.322.084.627.084.917v4.179h-1.26zm-5.39 0v-10.08h1.12v5.565h.14v4.515h-1.26zm8.47 0v-7.56h1.114v1.827l-.182-.238c.088-.234.203-.448.343-.644.144-.196.305-.357.483-.483.196-.159.417-.28.665-.364.247-.084.499-.133.756-.147.256-.019.497-.003.72.049v1.169a2.355 2.355 0 0 0-.86-.056 1.743 1.743 0 0 0-.868.343 1.857 1.857 0 0 0-.567.63 2.705 2.705 0 0 0-.273.805 4.907 4.907 0 0 0-.077.875v3.794h-1.253zm8.363.21c-.742 0-1.391-.164-1.946-.49a3.434 3.434 0 0 1-1.288-1.379c-.309-.593-.463-1.284-.463-2.072 0-.826.152-1.54.456-2.142.303-.607.725-1.074 1.267-1.4.546-.332 1.185-.497 1.918-.497.76 0 1.407.175 1.939.525.536.35.938.849 1.204 1.498.27.648.387 1.421.35 2.317h-1.26v-.448c-.014-.929-.203-1.622-.567-2.079-.364-.462-.906-.693-1.624-.693-.77 0-1.356.247-1.757.742-.402.494-.602 1.204-.602 2.128 0 .891.2 1.582.602 2.072.401.49.973.735 1.715.735.499 0 .933-.115 1.302-.343.368-.229.658-.558.868-.987l1.197.413a3.397 3.397 0 0 1-1.33 1.554 3.689 3.689 0 0 1-1.981.546zm-2.793-3.64v-1.001h5.586v1.001h-5.586zm9.8 3.64c-.564 0-1.038-.103-1.421-.308a2.199 2.199 0 0 1-.861-.826 2.253 2.253 0 0 1-.287-1.12c0-.397.075-.74.224-1.029.154-.294.369-.537.644-.728.276-.196.605-.35.987-.462.36-.098.761-.182 1.204-.252.448-.075.901-.143 1.358-.203.458-.061.885-.119 1.281-.175l-.448.259c.014-.672-.121-1.169-.406-1.491-.28-.322-.765-.483-1.456-.483-.457 0-.858.105-1.204.315-.34.205-.581.541-.721 1.008l-1.183-.357c.182-.663.535-1.183 1.057-1.561.523-.378 1.211-.567 2.065-.567.686 0 1.274.123 1.764.371.495.242.85.611 1.064 1.106.108.233.175.487.203.763.028.27.042.555.042.854v4.676h-1.106v-1.813l.259.168c-.284.611-.683 1.073-1.197 1.386-.508.312-1.129.469-1.862.469zm.189-1.043c.448 0 .836-.08 1.162-.238.332-.164.598-.376.798-.637.201-.266.332-.556.392-.868.07-.234.108-.493.112-.777.01-.29.014-.511.014-.665l.434.189c-.406.056-.805.109-1.197.161-.392.051-.763.107-1.113.168-.35.056-.665.123-.945.203a3.045 3.045 0 0 0-.581.252 1.31 1.31 0 0 0-.434.399 1.04 1.04 0 0 0-.161.595c0 .205.052.401.154.588.108.186.271.338.49.455.224.116.516.175.875.175zm9.758.833a5.672 5.672 0 0 1-1.33.105 2.964 2.964 0 0 1-1.162-.259 1.683 1.683 0 0 1-.777-.756 2.245 2.245 0 0 1-.245-.903 35.94 35.94 0 0 1-.014-1.043v-6.804h1.246v6.748c0 .308.003.571.007.791.01.219.059.408.147.567.168.298.434.473.798.525.369.051.812.037 1.33-.042v1.071zm-5.061-6.531v-1.029h5.061v1.029h-5.061zm9.452 6.734c-.901 0-1.64-.196-2.219-.588-.574-.397-.926-.95-1.057-1.659l1.274-.203c.103.41.338.737.707.98.369.238.826.357 1.372.357.518 0 .924-.108 1.218-.322.294-.215.441-.507.441-.875 0-.215-.049-.388-.147-.518-.098-.136-.301-.262-.609-.378a14.3 14.3 0 0 0-1.379-.42c-.667-.178-1.192-.362-1.575-.553-.383-.192-.656-.413-.819-.665-.163-.252-.245-.558-.245-.917 0-.444.121-.831.364-1.162.243-.336.581-.595 1.015-.777.439-.182.947-.273 1.526-.273a4.1 4.1 0 0 1 1.54.273c.453.182.817.441 1.092.777.28.331.446.718.497 1.162l-1.274.231a1.376 1.376 0 0 0-.588-.959c-.327-.234-.749-.357-1.267-.371-.49-.019-.889.067-1.197.259-.303.191-.455.45-.455.777 0 .182.056.338.168.469.117.13.329.254.637.371.313.116.765.249 1.358.399.667.168 1.192.352 1.575.553.387.196.663.429.826.7.163.266.245.595.245.987 0 .728-.268 1.302-.805 1.722-.537.415-1.276.623-2.219.623zm10.339.007c-.705 0-1.309-.175-1.813-.525a3.485 3.485 0 0 1-1.169-1.435c-.271-.602-.406-1.281-.406-2.037s.135-1.435.406-2.037a3.38 3.38 0 0 1 1.169-1.421c.504-.35 1.106-.525 1.806-.525.714 0 1.313.172 1.799.518.485.345.851.819 1.099 1.421.252.602.378 1.283.378 2.044 0 .751-.126 1.43-.378 2.037-.248.602-.614 1.08-1.099 1.435-.486.35-1.083.525-1.792.525zm.154-1.141c.508 0 .926-.122 1.253-.364.326-.248.567-.586.721-1.015.158-.434.238-.927.238-1.477 0-.56-.08-1.053-.238-1.477-.154-.43-.392-.763-.714-1.001-.322-.243-.731-.364-1.225-.364-.514 0-.938.126-1.274.378a2.247 2.247 0 0 0-.742 1.022c-.159.429-.238.91-.238 1.442 0 .536.081 1.022.245 1.456.163.429.408.77.735 1.022.331.252.744.378 1.239.378zm2.212.931v-5.565h-.14v-4.515h1.253v10.08h-1.113zm6.35.21c-.742 0-1.391-.164-1.946-.49a3.434 3.434 0 0 1-1.288-1.379c-.308-.593-.462-1.284-.462-2.072 0-.826.152-1.54.455-2.142a3.323 3.323 0 0 1 1.267-1.4c.546-.332 1.185-.497 1.918-.497.761 0 1.407.175 1.939.525.537.35.938.849 1.204 1.498.271.648.387 1.421.35 2.317h-1.26v-.448c-.014-.929-.203-1.622-.567-2.079-.364-.462-.905-.693-1.624-.693-.77 0-1.356.247-1.757.742-.401.494-.602 1.204-.602 2.128 0 .891.201 1.582.602 2.072.401.49.973.735 1.715.735.499 0 .933-.115 1.302-.343.369-.229.658-.558.868-.987l1.197.413a3.392 3.392 0 0 1-1.33 1.554 3.686 3.686 0 0 1-1.981.546zm-2.793-3.64v-1.001h5.586v1.001h-5.586zm12.009 3.43a5.672 5.672 0 0 1-1.33.105 2.964 2.964 0 0 1-1.162-.259 1.683 1.683 0 0 1-.777-.756 2.245 2.245 0 0 1-.245-.903 35.94 35.94 0 0 1-.014-1.043v-6.804h1.246v6.748c0 .308.003.571.007.791.01.219.059.408.147.567.168.298.434.473.798.525.369.051.812.037 1.33-.042v1.071zm-5.061-6.531v-1.029h5.061v1.029h-5.061zm9.558 6.741c-.742 0-1.391-.164-1.946-.49a3.434 3.434 0 0 1-1.288-1.379c-.308-.593-.462-1.284-.462-2.072 0-.826.151-1.54.455-2.142.303-.607.725-1.074 1.267-1.4.546-.332 1.185-.497 1.918-.497.76 0 1.407.175 1.939.525.536.35.938.849 1.204 1.498.27.648.387 1.421.35 2.317h-1.26v-.448c-.014-.929-.203-1.622-.567-2.079-.364-.462-.906-.693-1.624-.693-.77 0-1.356.247-1.757.742-.402.494-.602 1.204-.602 2.128 0 .891.2 1.582.602 2.072.401.49.973.735 1.715.735.499 0 .933-.115 1.302-.343.368-.229.658-.558.868-.987l1.197.413a3.397 3.397 0 0 1-1.33 1.554 3.689 3.689 0 0 1-1.981.546zm-2.793-3.64v-1.001h5.586v1.001h-5.586zm10.973 3.64c-.765 0-1.416-.171-1.953-.511a3.329 3.329 0 0 1-1.218-1.421c-.28-.602-.424-1.288-.434-2.058.01-.789.157-1.482.441-2.079a3.318 3.318 0 0 1 1.239-1.407c.537-.336 1.183-.504 1.939-.504.798 0 1.484.196 2.058.588.579.392.966.928 1.162 1.61l-1.232.371a2.014 2.014 0 0 0-.777-1.022 2.113 2.113 0 0 0-1.225-.364c-.518 0-.945.121-1.281.364a2.112 2.112 0 0 0-.749.994c-.163.42-.247.903-.252 1.449.01.84.203 1.519.581 2.037.383.513.95.77 1.701.77.495 0 .906-.112 1.232-.336.327-.229.574-.558.742-.987l1.26.329c-.261.704-.669 1.243-1.225 1.617-.555.373-1.225.56-2.009.56zm8.884-.21a5.672 5.672 0 0 1-1.33.105 2.964 2.964 0 0 1-1.162-.259 1.674 1.674 0 0 1-.777-.756 2.245 2.245 0 0 1-.245-.903 35.94 35.94 0 0 1-.014-1.043v-6.804h1.246v6.748c0 .308.002.571.007.791.009.219.058.408.147.567.168.298.434.473.798.525.369.051.812.037 1.33-.042v1.071zm-5.061-6.531v-1.029h5.061v1.029h-5.061zm9.557 6.741c-.742 0-1.39-.164-1.946-.49a3.441 3.441 0 0 1-1.288-1.379c-.308-.593-.462-1.284-.462-2.072 0-.826.152-1.54.455-2.142.304-.607.726-1.074 1.267-1.4.546-.332 1.186-.497 1.918-.497.761 0 1.407.175 1.939.525.537.35.938.849 1.204 1.498.271.648.388 1.421.35 2.317h-1.26v-.448c-.014-.929-.203-1.622-.567-2.079-.364-.462-.905-.693-1.624-.693-.77 0-1.355.247-1.757.742-.401.494-.602 1.204-.602 2.128 0 .891.201 1.582.602 2.072.402.49.973.735 1.715.735.5 0 .934-.115 1.302-.343.369-.229.658-.558.868-.987l1.197.413a3.392 3.392 0 0 1-1.33 1.554 3.686 3.686 0 0 1-1.981.546zm-2.793-3.64v-1.001h5.586v1.001h-5.586zm10.757 3.64c-.705 0-1.309-.175-1.813-.525a3.485 3.485 0 0 1-1.169-1.435c-.271-.602-.406-1.281-.406-2.037s.135-1.435.406-2.037a3.38 3.38 0 0 1 1.169-1.421c.504-.35 1.106-.525 1.806-.525.714 0 1.313.172 1.799.518.485.345.851.819 1.099 1.421.252.602.378 1.283.378 2.044 0 .751-.126 1.43-.378 2.037-.248.602-.614 1.08-1.099 1.435-.486.35-1.083.525-1.792.525zm.154-1.141c.508 0 .926-.122 1.253-.364.326-.248.567-.586.721-1.015.158-.434.238-.927.238-1.477 0-.56-.08-1.053-.238-1.477-.154-.43-.392-.763-.714-1.001-.322-.243-.731-.364-1.225-.364-.514 0-.938.126-1.274.378a2.247 2.247 0 0 0-.742 1.022c-.159.429-.238.91-.238 1.442 0 .536.081 1.022.245 1.456.163.429.408.77.735 1.022.331.252.744.378 1.239.378zm2.212.931v-5.565h-.14v-4.515h1.253v10.08h-1.113z"/><path fill="#FF2250" d="M458.235 328.81v-2.12h-5.296v-1.352l3.8-8.048h1.616l-3.8 8.048h3.68v-3.24h1.44v3.24h1.2v1.352h-1.2v2.12h-1.44zm7.963.24a3.787 3.787 0 0 1-1.656-.368 3.982 3.982 0 0 1-1.304-1.008 3.968 3.968 0 0 1-.768-1.488l1.368-.368c.096.378.267.706.512.984.246.272.531.485.856.64.331.149.675.224 1.032.224.47 0 .891-.112 1.264-.336.379-.23.678-.531.896-.904.219-.379.328-.792.328-1.24 0-.464-.114-.883-.344-1.256a2.458 2.458 0 0 0-.904-.896 2.431 2.431 0 0 0-1.24-.328c-.506 0-.941.106-1.304.32-.357.208-.64.464-.848.768l-1.264-.48.352-6.024h6.184v1.352h-5.496l.632-.592-.296 4.824-.312-.408c.32-.342.702-.606 1.144-.792.448-.187.904-.28 1.368-.28.715 0 1.355.168 1.92.504a3.64 3.64 0 0 1 1.344 1.36c.331.57.496 1.213.496 1.928 0 .709-.181 1.357-.544 1.944a4.133 4.133 0 0 1-1.448 1.4 3.855 3.855 0 0 1-1.968.52zm9.474 0c-.736 0-1.387-.147-1.952-.44a3.345 3.345 0 0 1-1.328-1.24c-.32-.528-.48-1.144-.48-1.848 0-.688.162-1.31.488-1.864.33-.555.826-.982 1.488-1.28l-.024.52a2.885 2.885 0 0 1-1.24-1.104 3.037 3.037 0 0 1-.432-1.592c0-.651.149-1.211.448-1.68.298-.47.709-.832 1.232-1.088.522-.256 1.122-.384 1.8-.384.677 0 1.277.128 1.8.384.522.256.933.618 1.232 1.088.298.469.448 1.029.448 1.68a3.13 3.13 0 0 1-.408 1.584c-.272.469-.691.84-1.256 1.112l-.032-.512c.661.288 1.157.712 1.488 1.272.336.554.504 1.176.504 1.864 0 .704-.163 1.32-.488 1.848a3.34 3.34 0 0 1-1.336 1.24c-.566.293-1.216.44-1.952.44zm0-1.36c.672 0 1.216-.184 1.632-.552.421-.374.632-.912.632-1.616 0-.71-.208-1.248-.624-1.616-.411-.374-.958-.56-1.64-.56-.678 0-1.224.186-1.64.56-.411.368-.616.906-.616 1.616 0 .704.208 1.242.624 1.616.416.368.96.552 1.632.552zm0-5.712c.586 0 1.061-.147 1.424-.44.362-.299.544-.744.544-1.336 0-.592-.182-1.035-.544-1.328-.363-.299-.838-.448-1.424-.448-.582 0-1.056.149-1.424.448-.363.293-.544.736-.544 1.328 0 .592.181 1.037.544 1.336.368.293.842.44 1.424.44z"/><path fill="#fff" d="m372.882 257.477-3.374-10.08h1.295l2.933 8.757 2.961-8.757h1.295l-3.374 10.08h-1.736zm6.029-8.897v-1.288h1.246v1.288h-1.246zm0 8.897v-7.56h1.246v7.56h-1.246zm6.622.21c-.742 0-1.39-.163-1.946-.49a3.435 3.435 0 0 1-1.288-1.379c-.308-.593-.462-1.283-.462-2.072 0-.826.152-1.54.455-2.142a3.335 3.335 0 0 1 1.267-1.4c.546-.331 1.186-.497 1.918-.497.761 0 1.407.175 1.939.525.537.35.938.849 1.204 1.498.271.649.388 1.421.35 2.317h-1.26v-.448c-.014-.929-.203-1.622-.567-2.079-.364-.462-.905-.693-1.624-.693-.77 0-1.355.247-1.757.742-.401.495-.602 1.204-.602 2.128 0 .891.201 1.582.602 2.072.402.49.973.735 1.715.735.5 0 .934-.114 1.302-.343.369-.229.658-.558.868-.987l1.197.413a3.392 3.392 0 0 1-1.33 1.554 3.686 3.686 0 0 1-1.981.546zm-2.793-3.64v-1.001h5.586v1.001h-5.586zm9.125 3.43-2.31-7.567 1.239.007 1.687 5.53 1.701-5.53h1.099l1.694 5.53 1.694-5.53h1.232l-2.31 7.56h-1.036l-1.827-5.747-1.827 5.747h-1.036zm12.824 0v-7.973c0-.196.01-.394.028-.595.019-.205.061-.404.126-.595.066-.196.173-.376.322-.539.173-.191.362-.327.567-.406.206-.084.413-.135.623-.154.215-.019.418-.028.609-.028h.959v1.036h-.889c-.368 0-.644.091-.826.273-.182.177-.273.448-.273.812v8.169h-1.246zm-1.281-6.531v-1.029h4.515v1.029h-4.515zm8.503 6.727c-.486 0-.903-.077-1.253-.231a2.478 2.478 0 0 1-.861-.616 3.014 3.014 0 0 1-.539-.854 4.396 4.396 0 0 1-.28-.959 5.845 5.845 0 0 1-.077-.917v-4.179h1.26v3.787c0 .355.032.698.098 1.029.065.331.175.63.329.896.158.266.368.476.63.63.266.154.597.231.994.231.312 0 .597-.054.854-.161.256-.107.476-.266.658-.476.182-.215.322-.485.42-.812.098-.327.147-.707.147-1.141l.819.252c0 .728-.133 1.356-.399 1.883a2.86 2.86 0 0 1-1.113 1.218c-.476.28-1.039.42-1.687.42zm2.52-.196v-2.023h-.14v-5.537h1.253v7.56h-1.113zm3.212 0v-10.29h1.246v10.29h-1.246zm3.487 0v-10.29h1.246v10.29h-1.246zm6.149 0v-7.56h1.113v1.827l-.182-.238c.088-.233.203-.448.343-.644.144-.196.305-.357.483-.483.196-.159.417-.28.665-.364.247-.084.499-.133.756-.147a2.43 2.43 0 0 1 .721.049v1.169a2.357 2.357 0 0 0-.861-.056 1.75 1.75 0 0 0-.868.343 1.87 1.87 0 0 0-.567.63 2.715 2.715 0 0 0-.273.805 4.86 4.86 0 0 0-.077.875v3.794h-1.253zm8.362.21c-.742 0-1.391-.163-1.946-.49a3.428 3.428 0 0 1-1.288-1.379c-.308-.593-.462-1.283-.462-2.072 0-.826.151-1.54.455-2.142a3.323 3.323 0 0 1 1.267-1.4c.546-.331 1.185-.497 1.918-.497.76 0 1.407.175 1.939.525.536.35.938.849 1.204 1.498.27.649.387 1.421.35 2.317h-1.26v-.448c-.014-.929-.203-1.622-.567-2.079-.364-.462-.906-.693-1.624-.693-.77 0-1.356.247-1.757.742-.402.495-.602 1.204-.602 2.128 0 .891.2 1.582.602 2.072.401.49.973.735 1.715.735.499 0 .933-.114 1.302-.343.368-.229.658-.558.868-.987l1.197.413a3.397 3.397 0 0 1-1.33 1.554 3.689 3.689 0 0 1-1.981.546zm-2.793-3.64v-1.001h5.586v1.001h-5.586zm11.055 3.64c-.709 0-1.306-.175-1.792-.525a3.324 3.324 0 0 1-1.106-1.435c-.247-.607-.371-1.286-.371-2.037 0-.761.124-1.442.371-2.044.252-.602.621-1.076 1.106-1.421.49-.345 1.09-.518 1.799-.518.7 0 1.302.175 1.806.525.509.345.899.819 1.169 1.421.271.602.406 1.281.406 2.037s-.135 1.435-.406 2.037c-.27.602-.66 1.08-1.169 1.435-.504.35-1.108.525-1.813.525zm-3.479 3.15v-10.92h1.113v5.565h.14v5.355h-1.253zm3.325-4.291c.5 0 .913-.126 1.239-.378.327-.252.572-.593.735-1.022.164-.434.245-.919.245-1.456 0-.532-.081-1.013-.245-1.442a2.189 2.189 0 0 0-.742-1.022c-.331-.252-.753-.378-1.267-.378-.49 0-.896.121-1.218.364-.322.238-.562.572-.721 1.001-.158.425-.238.917-.238 1.477 0 .551.077 1.043.231 1.477.159.429.402.768.728 1.015.327.243.745.364 1.253.364zm8.297 1.141c-.752 0-1.4-.17-1.946-.511a3.384 3.384 0 0 1-1.253-1.414c-.294-.602-.441-1.293-.441-2.072 0-.793.149-1.489.448-2.086a3.328 3.328 0 0 1 1.267-1.393c.546-.336 1.187-.504 1.925-.504.756 0 1.407.17 1.953.511.546.336.963.805 1.253 1.407.294.597.441 1.286.441 2.065 0 .789-.147 1.484-.441 2.086a3.384 3.384 0 0 1-1.26 1.407c-.546.336-1.195.504-1.946.504zm0-1.183c.784 0 1.367-.261 1.75-.784.382-.523.574-1.199.574-2.03 0-.854-.194-1.533-.581-2.037-.388-.509-.969-.763-1.743-.763-.528 0-.962.119-1.302.357a2.136 2.136 0 0 0-.763.987c-.168.42-.252.905-.252 1.456 0 .849.196 1.531.588 2.044.392.513.968.77 1.729.77zm5.188.973v-7.56h1.113v1.827l-.182-.238c.089-.233.203-.448.343-.644.145-.196.306-.357.483-.483.196-.159.418-.28.665-.364.247-.084.499-.133.756-.147.257-.019.497-.002.721.049v1.169a2.354 2.354 0 0 0-.861-.056 1.75 1.75 0 0 0-.868.343 1.87 1.87 0 0 0-.567.63 2.715 2.715 0 0 0-.273.805 4.952 4.952 0 0 0-.077.875v3.794h-1.253zm9.444 0a5.57 5.57 0 0 1-1.33.105 2.943 2.943 0 0 1-1.162-.259 1.665 1.665 0 0 1-.777-.756 2.23 2.23 0 0 1-.245-.903 32.69 32.69 0 0 1-.014-1.043v-6.804h1.246v6.748c0 .308.002.572.007.791.009.219.058.408.147.567.168.299.434.474.798.525.368.051.812.037 1.33-.042v1.071zm-5.061-6.531v-1.029h5.061v1.029h-5.061z"/><rect width="125" height="33" x="355.938" y="235.977" stroke="#fff" stroke-opacity=".2" rx="7.5"/><path fill="#fff" d="M78.12 378.81v-10.08h1.26l5.256 7.875v-7.875h1.26v10.08h-1.26l-5.257-7.882v7.882h-1.26zm13.01.21c-.742 0-1.391-.164-1.947-.49a3.437 3.437 0 0 1-1.288-1.379c-.307-.593-.462-1.284-.462-2.072 0-.826.152-1.54.455-2.142.304-.607.726-1.074 1.267-1.4.546-.332 1.186-.497 1.918-.497.761 0 1.408.175 1.94.525.536.35.938.849 1.203 1.498.271.648.388 1.421.35 2.317h-1.26v-.448c-.013-.929-.203-1.622-.566-2.079-.364-.462-.906-.693-1.624-.693-.77 0-1.356.247-1.757.742-.402.494-.602 1.204-.602 2.128 0 .891.2 1.582.602 2.072.4.49.973.735 1.715.735.499 0 .933-.115 1.302-.343a2.34 2.34 0 0 0 .867-.987l1.198.413a3.393 3.393 0 0 1-1.33 1.554 3.687 3.687 0 0 1-1.982.546zm-2.793-3.64v-1.001h5.585v1.001h-5.585zm12.009 3.43a5.673 5.673 0 0 1-1.33.105 2.963 2.963 0 0 1-1.162-.259c-.34-.164-.6-.416-.777-.756a2.24 2.24 0 0 1-.245-.903 32.69 32.69 0 0 1-.014-1.043v-6.804h1.246v6.748c0 .308.002.571.007.791.01.219.058.408.147.567.168.298.434.473.798.525.369.051.812.037 1.33-.042v1.071zm-5.061-6.531v-1.029h5.061v1.029h-5.061zm8.206 6.531-2.31-7.567 1.239.007 1.687 5.53 1.701-5.53h1.099l1.694 5.53 1.694-5.53h1.232l-2.31 7.56h-1.036l-1.827-5.747-1.827 5.747h-1.036zm12.247.21c-.752 0-1.4-.171-1.946-.511a3.384 3.384 0 0 1-1.253-1.414c-.294-.602-.441-1.293-.441-2.072 0-.794.149-1.489.448-2.086a3.323 3.323 0 0 1 1.267-1.393c.546-.336 1.187-.504 1.925-.504.756 0 1.407.17 1.953.511.546.336.963.805 1.253 1.407.294.597.441 1.285.441 2.065 0 .788-.147 1.484-.441 2.086a3.384 3.384 0 0 1-1.26 1.407c-.546.336-1.195.504-1.946.504zm0-1.183c.784 0 1.367-.262 1.75-.784.382-.523.574-1.2.574-2.03 0-.854-.194-1.533-.581-2.037-.388-.509-.969-.763-1.743-.763-.528 0-.962.119-1.302.357a2.136 2.136 0 0 0-.763.987c-.168.42-.252.905-.252 1.456 0 .849.196 1.53.588 2.044.392.513.968.77 1.729.77zm5.188.973v-7.56h1.113v1.827l-.182-.238c.088-.234.203-.448.343-.644.144-.196.305-.357.483-.483.196-.159.417-.28.665-.364.247-.084.499-.133.756-.147.256-.019.497-.003.721.049v1.169a2.357 2.357 0 0 0-.861-.056 1.742 1.742 0 0 0-.868.343 1.85 1.85 0 0 0-.567.63 2.705 2.705 0 0 0-.273.805 4.852 4.852 0 0 0-.077.875v3.794h-1.253zm5.215 0 .007-10.08h1.26v6.16l3.171-3.64h1.617l-3.339 3.78 3.731 3.78h-1.743l-3.437-3.64v3.64h-1.267zm13.223.21c-.742 0-1.391-.164-1.946-.49a3.434 3.434 0 0 1-1.288-1.379c-.308-.593-.462-1.284-.462-2.072 0-.826.152-1.54.455-2.142a3.323 3.323 0 0 1 1.267-1.4c.546-.332 1.185-.497 1.918-.497.761 0 1.407.175 1.939.525.537.35.938.849 1.204 1.498.271.648.387 1.421.35 2.317h-1.26v-.448c-.014-.929-.203-1.622-.567-2.079-.364-.462-.905-.693-1.624-.693-.77 0-1.356.247-1.757.742-.401.494-.602 1.204-.602 2.128 0 .891.201 1.582.602 2.072.401.49.973.735 1.715.735.499 0 .933-.115 1.302-.343.369-.229.658-.558.868-.987l1.197.413a3.392 3.392 0 0 1-1.33 1.554 3.686 3.686 0 0 1-1.981.546zm-2.793-3.64v-1.001h5.586v1.001h-5.586zm7.788 3.43v-7.56h1.113v1.827l-.182-.238c.089-.234.203-.448.343-.644.145-.196.306-.357.483-.483.196-.159.418-.28.665-.364.248-.084.5-.133.756-.147.257-.019.497-.003.721.049v1.169a2.354 2.354 0 0 0-.861-.056 1.745 1.745 0 0 0-.868.343 1.871 1.871 0 0 0-.567.63c-.13.247-.221.515-.273.805a4.944 4.944 0 0 0-.077.875v3.794h-1.253zm5.223 0v-7.56h1.113v1.827l-.182-.238c.089-.234.203-.448.343-.644.145-.196.306-.357.483-.483.196-.159.418-.28.665-.364.247-.084.499-.133.756-.147.257-.019.497-.003.721.049v1.169a2.354 2.354 0 0 0-.861-.056 1.742 1.742 0 0 0-.868.343 1.85 1.85 0 0 0-.567.63 2.705 2.705 0 0 0-.273.805 4.944 4.944 0 0 0-.077.875v3.794h-1.253zm8.306.21c-.751 0-1.4-.171-1.946-.511a3.39 3.39 0 0 1-1.253-1.414c-.294-.602-.441-1.293-.441-2.072 0-.794.149-1.489.448-2.086a3.329 3.329 0 0 1 1.267-1.393c.546-.336 1.188-.504 1.925-.504.756 0 1.407.17 1.953.511.546.336.964.805 1.253 1.407.294.597.441 1.285.441 2.065 0 .788-.147 1.484-.441 2.086a3.384 3.384 0 0 1-1.26 1.407c-.546.336-1.195.504-1.946.504zm0-1.183c.784 0 1.367-.262 1.75-.784.383-.523.574-1.2.574-2.03 0-.854-.194-1.533-.581-2.037-.387-.509-.968-.763-1.743-.763-.527 0-.961.119-1.302.357a2.136 2.136 0 0 0-.763.987c-.168.42-.252.905-.252 1.456 0 .849.196 1.53.588 2.044.392.513.968.77 1.729.77zm5.188.973v-7.56h1.113v1.827l-.182-.238c.089-.234.203-.448.343-.644.145-.196.306-.357.483-.483.196-.159.418-.28.665-.364.248-.084.5-.133.756-.147.257-.019.497-.003.721.049v1.169a2.354 2.354 0 0 0-.861-.056 1.745 1.745 0 0 0-.868.343 1.871 1.871 0 0 0-.567.63c-.13.247-.221.515-.273.805a4.944 4.944 0 0 0-.077.875v3.794h-1.253zm7.805.203c-.9 0-1.64-.196-2.219-.588-.574-.397-.926-.95-1.057-1.659l1.274-.203c.103.41.339.737.707.98.369.238.826.357 1.372.357.518 0 .924-.108 1.218-.322.294-.215.441-.507.441-.875 0-.215-.049-.388-.147-.518-.098-.136-.301-.262-.609-.378a14.3 14.3 0 0 0-1.379-.42c-.667-.178-1.192-.362-1.575-.553-.382-.192-.655-.413-.819-.665-.163-.252-.245-.558-.245-.917 0-.444.122-.831.364-1.162.243-.336.581-.595 1.015-.777.439-.182.948-.273 1.526-.273.574 0 1.088.091 1.54.273.453.182.817.441 1.092.777.28.331.446.718.497 1.162l-1.274.231a1.37 1.37 0 0 0-.588-.959c-.326-.234-.749-.357-1.267-.371-.49-.019-.889.067-1.197.259-.303.191-.455.45-.455.777 0 .182.056.338.168.469.117.13.329.254.637.371.313.116.766.249 1.358.399.668.168 1.193.352 1.575.553.388.196.663.429.826.7.164.266.245.595.245.987 0 .728-.268 1.302-.805 1.722-.536.415-1.276.623-2.219.623zm296.386 2.797v-9.944l-2.168 1.312v-1.592l2.168-1.296h1.448v11.52h-1.448zm4.172-.008.008-1.28 5.112-4.6c.427-.384.712-.747.856-1.088.149-.347.224-.702.224-1.064 0-.443-.101-.843-.304-1.2a2.265 2.265 0 0 0-2.016-1.16c-.459 0-.867.109-1.224.328-.357.213-.64.498-.848.856a2.265 2.265 0 0 0-.296 1.168h-1.456c0-.726.168-1.366.504-1.92a3.55 3.55 0 0 1 1.368-1.312c.581-.32 1.24-.48 1.976-.48.715 0 1.355.165 1.92.496.565.325 1.011.77 1.336 1.336.331.56.496 1.194.496 1.904 0 .501-.064.936-.192 1.304a3.173 3.173 0 0 1-.576 1.024c-.261.309-.589.64-.984.992l-4.248 3.816-.184-.48h6.184v1.36h-7.656zM82.095 432.02c-.78 0-1.468-.161-2.065-.483a3.566 3.566 0 0 1-1.407-1.351c-.336-.584-.504-1.267-.504-2.051v-6.398l1.26-.007v6.3c0 .476.08.891.238 1.246.163.35.378.641.644.875.266.233.558.408.875.525.322.112.642.168.96.168a2.835 2.835 0 0 0 1.84-.693c.266-.234.478-.528.637-.882.159-.355.238-.768.238-1.239v-6.3h1.26v6.405c0 .779-.17 1.46-.51 2.044a3.503 3.503 0 0 1-1.4 1.358c-.598.322-1.287.483-2.066.483zm11.32-.21v-3.787c0-.36-.033-.705-.099-1.036a2.592 2.592 0 0 0-.329-.889 1.7 1.7 0 0 0-.63-.63c-.261-.154-.592-.231-.994-.231a2.18 2.18 0 0 0-.854.161 1.66 1.66 0 0 0-.65.476 2.3 2.3 0 0 0-.428.812 3.937 3.937 0 0 0-.147 1.141l-.819-.252c0-.733.13-1.361.392-1.883a2.856 2.856 0 0 1 1.113-1.211c.48-.285 1.046-.427 1.694-.427.49 0 .908.077 1.253.231.346.154.633.359.861.616.229.252.409.536.54.854.13.312.22.632.272.959.056.322.084.627.084.917v4.179h-1.26zm-5.39 0v-7.56h1.12v2.023h.14v5.537h-1.26zm10.618.21c-.564 0-1.038-.103-1.42-.308a2.199 2.199 0 0 1-.862-.826 2.248 2.248 0 0 1-.287-1.12c0-.397.075-.74.224-1.029.154-.294.369-.537.644-.728.276-.196.605-.35.987-.462.36-.098.76-.182 1.204-.252.448-.075.901-.143 1.358-.203.457-.061.884-.119 1.281-.175l-.448.259c.014-.672-.121-1.169-.406-1.491-.28-.322-.765-.483-1.456-.483a2.27 2.27 0 0 0-1.204.315c-.34.205-.58.541-.72 1.008l-1.184-.357c.182-.663.534-1.183 1.057-1.561.523-.378 1.211-.567 2.065-.567.686 0 1.274.123 1.764.371.495.242.849.611 1.064 1.106.107.233.175.487.203.763.028.27.042.555.042.854v4.676h-1.106v-1.813l.259.168c-.285.611-.684 1.073-1.197 1.386-.508.312-1.13.469-1.862.469zm.19-1.043c.447 0 .835-.08 1.161-.238.331-.164.597-.376.798-.637a2.09 2.09 0 0 0 .392-.868c.07-.234.107-.493.112-.777.009-.29.014-.511.014-.665l.434.189c-.406.056-.805.109-1.197.161-.392.051-.763.107-1.113.168-.35.056-.665.123-.945.203a3.035 3.035 0 0 0-.58.252 1.305 1.305 0 0 0-.435.399 1.037 1.037 0 0 0-.16.595c0 .205.05.401.153.588.108.186.27.338.49.455.224.116.516.175.875.175zm8.406 1.029c-.485 0-.903-.077-1.253-.231a2.51 2.51 0 0 1-.861-.616 3.05 3.05 0 0 1-.539-.854 4.413 4.413 0 0 1-.28-.959 5.977 5.977 0 0 1-.077-.917v-4.179h1.26v3.787c0 .354.033.697.098 1.029.065.331.175.63.329.896.159.266.369.476.63.63.266.154.597.231.994.231.313 0 .597-.054.854-.161a1.76 1.76 0 0 0 .658-.476c.182-.215.322-.486.42-.812.098-.327.147-.707.147-1.141l.819.252c0 .728-.133 1.355-.399 1.883a2.847 2.847 0 0 1-1.113 1.218c-.476.28-1.038.42-1.687.42zm2.52-.196v-2.023h-.14v-5.537h1.253v7.56h-1.113zm7.294 0a5.672 5.672 0 0 1-1.33.105 2.964 2.964 0 0 1-1.162-.259 1.674 1.674 0 0 1-.777-.756 2.245 2.245 0 0 1-.245-.903 35.94 35.94 0 0 1-.014-1.043v-6.804h1.246v6.748c0 .308.002.571.007.791.009.219.058.408.147.567.168.298.434.473.798.525.369.051.812.037 1.33-.042v1.071zm-5.061-6.531v-1.029h5.061v1.029h-5.061zm11.979 6.531v-3.787c0-.36-.033-.705-.098-1.036a2.59 2.59 0 0 0-.329-.889 1.7 1.7 0 0 0-.63-.63c-.261-.154-.593-.231-.994-.231a2.18 2.18 0 0 0-.854.161 1.66 1.66 0 0 0-.651.476 2.307 2.307 0 0 0-.427.812 3.937 3.937 0 0 0-.147 1.141l-.819-.252c0-.733.131-1.361.392-1.883a2.856 2.856 0 0 1 1.113-1.211c.481-.285 1.045-.427 1.694-.427.49 0 .908.077 1.253.231.345.154.632.359.861.616a2.9 2.9 0 0 1 .539.854c.131.312.222.632.273.959.056.322.084.627.084.917v4.179h-1.26zm-5.39 0v-10.08h1.12v5.565h.14v4.515h-1.26zm11.69.21c-.752 0-1.4-.171-1.946-.511a3.384 3.384 0 0 1-1.253-1.414c-.294-.602-.441-1.293-.441-2.072 0-.794.149-1.489.448-2.086a3.323 3.323 0 0 1 1.267-1.393c.546-.336 1.187-.504 1.925-.504.756 0 1.407.17 1.953.511.546.336.963.805 1.253 1.407.294.597.441 1.285.441 2.065 0 .788-.147 1.484-.441 2.086a3.384 3.384 0 0 1-1.26 1.407c-.546.336-1.195.504-1.946.504zm0-1.183c.784 0 1.367-.262 1.75-.784.382-.523.574-1.2.574-2.03 0-.854-.194-1.533-.581-2.037-.388-.509-.969-.763-1.743-.763-.528 0-.962.119-1.302.357a2.136 2.136 0 0 0-.763.987c-.168.42-.252.905-.252 1.456 0 .849.196 1.53.588 2.044.392.513.968.77 1.729.77zm5.188.973v-7.56h1.113v1.827l-.182-.238c.089-.234.203-.448.343-.644.145-.196.306-.357.483-.483.196-.159.418-.28.665-.364.247-.084.499-.133.756-.147.257-.019.497-.003.721.049v1.169a2.354 2.354 0 0 0-.861-.056 1.742 1.742 0 0 0-.868.343 1.85 1.85 0 0 0-.567.63 2.705 2.705 0 0 0-.273.805 4.944 4.944 0 0 0-.077.875v3.794h-1.253zm5.363-8.897v-1.288h1.246v1.288h-1.246zm0 8.897v-7.56h1.246v7.56h-1.246zm2.646 0v-.224l4.585-6.202h-4.207v-1.134h6.216v.238l-4.578 6.188h4.34v1.134h-6.356zm10.853.21c-.742 0-1.391-.164-1.946-.49a3.434 3.434 0 0 1-1.288-1.379c-.308-.593-.462-1.284-.462-2.072 0-.826.152-1.54.455-2.142a3.323 3.323 0 0 1 1.267-1.4c.546-.332 1.185-.497 1.918-.497.761 0 1.407.175 1.939.525.537.35.938.849 1.204 1.498.271.648.387 1.421.35 2.317h-1.26v-.448c-.014-.929-.203-1.622-.567-2.079-.364-.462-.905-.693-1.624-.693-.77 0-1.356.247-1.757.742-.401.494-.602 1.204-.602 2.128 0 .891.201 1.582.602 2.072.401.49.973.735 1.715.735.499 0 .933-.115 1.302-.343.369-.229.658-.558.868-.987l1.197.413a3.392 3.392 0 0 1-1.33 1.554 3.686 3.686 0 0 1-1.981.546zm-2.793-3.64v-1.001h5.586v1.001h-5.586zm10.756 3.64c-.704 0-1.309-.175-1.813-.525a3.493 3.493 0 0 1-1.169-1.435c-.27-.602-.406-1.281-.406-2.037s.136-1.435.406-2.037c.276-.602.665-1.076 1.169-1.421.504-.35 1.106-.525 1.806-.525.714 0 1.314.172 1.799.518.486.345.852.819 1.099 1.421.252.602.378 1.283.378 2.044 0 .751-.126 1.43-.378 2.037a3.266 3.266 0 0 1-1.099 1.435c-.485.35-1.082.525-1.792.525zm.154-1.141c.509 0 .927-.122 1.253-.364.327-.248.567-.586.721-1.015.159-.434.238-.927.238-1.477 0-.56-.079-1.053-.238-1.477-.154-.43-.392-.763-.714-1.001-.322-.243-.73-.364-1.225-.364-.513 0-.938.126-1.274.378a2.261 2.261 0 0 0-.742 1.022 4.15 4.15 0 0 0-.238 1.442c0 .536.082 1.022.245 1.456.164.429.409.77.735 1.022.332.252.745.378 1.239.378zm2.212.931v-5.565h-.14v-4.515h1.253v10.08h-1.113zm8.026.21c-.564 0-1.038-.103-1.421-.308a2.199 2.199 0 0 1-.861-.826 2.253 2.253 0 0 1-.287-1.12c0-.397.075-.74.224-1.029.154-.294.369-.537.644-.728.276-.196.605-.35.987-.462.36-.098.761-.182 1.204-.252.448-.075.901-.143 1.358-.203.458-.061.885-.119 1.281-.175l-.448.259c.014-.672-.121-1.169-.406-1.491-.28-.322-.765-.483-1.456-.483-.457 0-.858.105-1.204.315-.34.205-.581.541-.721 1.008l-1.183-.357c.182-.663.535-1.183 1.057-1.561.523-.378 1.211-.567 2.065-.567.686 0 1.274.123 1.764.371.495.242.85.611 1.064 1.106.108.233.175.487.203.763.028.27.042.555.042.854v4.676h-1.106v-1.813l.259.168c-.284.611-.683 1.073-1.197 1.386-.508.312-1.129.469-1.862.469zm.189-1.043c.448 0 .836-.08 1.162-.238.332-.164.598-.376.798-.637.201-.266.332-.556.392-.868.07-.234.108-.493.112-.777.01-.29.014-.511.014-.665l.434.189c-.406.056-.805.109-1.197.161-.392.051-.763.107-1.113.168-.35.056-.665.123-.945.203a3.045 3.045 0 0 0-.581.252 1.31 1.31 0 0 0-.434.399 1.04 1.04 0 0 0-.161.595c0 .205.052.401.154.588.108.186.271.338.49.455.224.116.516.175.875.175zm8.722 1.043c-.765 0-1.416-.171-1.953-.511a3.329 3.329 0 0 1-1.218-1.421c-.28-.602-.424-1.288-.434-2.058.01-.789.157-1.482.441-2.079a3.318 3.318 0 0 1 1.239-1.407c.537-.336 1.183-.504 1.939-.504.798 0 1.484.196 2.058.588.579.392.966.928 1.162 1.61l-1.232.371a2.014 2.014 0 0 0-.777-1.022 2.113 2.113 0 0 0-1.225-.364c-.518 0-.945.121-1.281.364a2.112 2.112 0 0 0-.749.994c-.163.42-.247.903-.252 1.449.01.84.203 1.519.581 2.037.383.513.95.77 1.701.77.495 0 .906-.112 1.232-.336.327-.229.574-.558.742-.987l1.26.329c-.261.704-.669 1.243-1.225 1.617-.555.373-1.225.56-2.009.56zm7.643 0c-.765 0-1.416-.171-1.953-.511a3.329 3.329 0 0 1-1.218-1.421c-.28-.602-.425-1.288-.434-2.058.009-.789.156-1.482.441-2.079a3.304 3.304 0 0 1 1.239-1.407c.537-.336 1.183-.504 1.939-.504.798 0 1.484.196 2.058.588.579.392.966.928 1.162 1.61l-1.232.371a2.025 2.025 0 0 0-.777-1.022 2.115 2.115 0 0 0-1.225-.364c-.518 0-.945.121-1.281.364a2.105 2.105 0 0 0-.749.994c-.163.42-.247.903-.252 1.449.009.84.203 1.519.581 2.037.383.513.95.77 1.701.77.495 0 .905-.112 1.232-.336.327-.229.574-.558.742-.987l1.26.329c-.261.704-.67 1.243-1.225 1.617-.555.373-1.225.56-2.009.56zm7.734 0c-.742 0-1.391-.164-1.946-.49a3.434 3.434 0 0 1-1.288-1.379c-.308-.593-.462-1.284-.462-2.072 0-.826.151-1.54.455-2.142.303-.607.725-1.074 1.267-1.4.546-.332 1.185-.497 1.918-.497.76 0 1.407.175 1.939.525.536.35.938.849 1.204 1.498.27.648.387 1.421.35 2.317h-1.26v-.448c-.014-.929-.203-1.622-.567-2.079-.364-.462-.906-.693-1.624-.693-.77 0-1.356.247-1.757.742-.402.494-.602 1.204-.602 2.128 0 .891.2 1.582.602 2.072.401.49.973.735 1.715.735.499 0 .933-.115 1.302-.343.368-.229.658-.558.868-.987l1.197.413a3.397 3.397 0 0 1-1.33 1.554 3.689 3.689 0 0 1-1.981.546zm-2.793-3.64v-1.001h5.586v1.001h-5.586zm10.644 3.633c-.901 0-1.64-.196-2.219-.588-.574-.397-.926-.95-1.057-1.659l1.274-.203c.103.41.338.737.707.98.369.238.826.357 1.372.357.518 0 .924-.108 1.218-.322.294-.215.441-.507.441-.875 0-.215-.049-.388-.147-.518-.098-.136-.301-.262-.609-.378a14.3 14.3 0 0 0-1.379-.42c-.667-.178-1.192-.362-1.575-.553-.383-.192-.656-.413-.819-.665-.163-.252-.245-.558-.245-.917 0-.444.121-.831.364-1.162.243-.336.581-.595 1.015-.777.439-.182.947-.273 1.526-.273a4.1 4.1 0 0 1 1.54.273c.453.182.817.441 1.092.777.28.331.446.718.497 1.162l-1.274.231a1.376 1.376 0 0 0-.588-.959c-.327-.234-.749-.357-1.267-.371-.49-.019-.889.067-1.197.259-.303.191-.455.45-.455.777 0 .182.056.338.168.469.117.13.329.254.637.371.313.116.765.249 1.358.399.667.168 1.192.352 1.575.553.387.196.663.429.826.7.163.266.245.595.245.987 0 .728-.268 1.302-.805 1.722-.537.415-1.276.623-2.219.623zm7.424 0c-.901 0-1.641-.196-2.219-.588-.574-.397-.927-.95-1.057-1.659l1.274-.203c.102.41.338.737.707.98.368.238.826.357 1.372.357.518 0 .924-.108 1.218-.322.294-.215.441-.507.441-.875 0-.215-.049-.388-.147-.518-.098-.136-.301-.262-.609-.378a14.39 14.39 0 0 0-1.379-.42c-.668-.178-1.193-.362-1.575-.553-.383-.192-.656-.413-.819-.665-.164-.252-.245-.558-.245-.917 0-.444.121-.831.364-1.162.242-.336.581-.595 1.015-.777.438-.182.947-.273 1.526-.273a4.1 4.1 0 0 1 1.54.273c.452.182.816.441 1.092.777.28.331.445.718.497 1.162l-1.274.231a1.376 1.376 0 0 0-.588-.959c-.327-.234-.749-.357-1.267-.371-.49-.019-.889.067-1.197.259-.304.191-.455.45-.455.777 0 .182.056.338.168.469.116.13.329.254.637.371.312.116.765.249 1.358.399.667.168 1.192.352 1.575.553.387.196.662.429.826.7.163.266.245.595.245.987 0 .728-.269 1.302-.805 1.722-.537.415-1.277.623-2.219.623zm257.996 2.797v-2.12h-5.296v-1.352l3.8-8.048h1.616l-3.8 8.048h3.68v-3.24h1.44v3.24h1.2v1.352h-1.2v2.12h-1.44zm6.563 0v-9.944l-2.168 1.312v-1.592l2.168-1.296h1.448v11.52h-1.448z"/><g filter="url(#k)" opacity=".4"><path fill="url(#l)" d="M400.694 125.81h98v2h-98z"/></g><g filter="url(#m)"><path fill="url(#n)" d="M.694 81.072c0 5.523 4.477 10 10 10h530c5.523 0 10-4.477 10-10V10.81c0-5.523-4.477-10-10-10h-530c-5.523 0-10 4.477-10 10v70.262z"/></g><g filter="url(#o)"><path fill="url(#p)" d="M3.41 470.547c0-5.522 4.477-10 10-10h530c5.523 0 10 4.478 10 10v70.262c0 5.523-4.477 10-10 10h-530c-5.523 0-10-4.477-10-10v-70.262z"/></g><path stroke="#3F3B3D" d="M53.03 348.534h450.76M53.97 401.061H503.6M53.03 453.588h450.76"/></g><path fill="#fff" d="M55.37 177.478v-14.4h5.69c.14 0 .306.006.5.02.193.006.38.026.56.06.78.12 1.433.386 1.96.8.533.413.933.936 1.2 1.57.266.626.4 1.323.4 2.09 0 1.113-.29 2.08-.87 2.9-.58.813-1.43 1.323-2.55 1.53l-.68.11h-4.43v5.32h-1.78zm8.57 0-2.84-5.86 1.76-.54 3.12 6.4h-2.04zm-6.79-7.01H61c.126 0 .27-.007.43-.02.166-.014.323-.037.47-.07.46-.107.833-.3 1.12-.58.293-.287.506-.62.64-1 .133-.387.2-.78.2-1.18 0-.4-.067-.79-.2-1.17a2.553 2.553 0 0 0-.64-1.01c-.287-.287-.66-.48-1.12-.58a2.063 2.063 0 0 0-.47-.07 4.951 4.951 0 0 0-.43-.02h-3.85v5.7zm15.712 7.31c-1.06 0-1.987-.234-2.78-.7a4.908 4.908 0 0 1-1.84-1.97c-.44-.847-.66-1.834-.66-2.96 0-1.18.216-2.2.65-3.06.433-.867 1.036-1.534 1.81-2 .78-.474 1.693-.71 2.74-.71 1.086 0 2.01.25 2.77.75.766.5 1.34 1.213 1.72 2.14.386.926.553 2.03.5 3.31h-1.8v-.64c-.02-1.327-.29-2.317-.81-2.97-.52-.66-1.294-.99-2.32-.99-1.1 0-1.937.353-2.51 1.06-.574.706-.86 1.72-.86 3.04 0 1.273.286 2.26.86 2.96.573.7 1.39 1.05 2.45 1.05.713 0 1.333-.164 1.86-.49.526-.327.94-.797 1.24-1.41l1.71.59c-.42.953-1.054 1.693-1.9 2.22-.84.52-1.784.78-2.83.78zm-3.99-5.2v-1.43h7.98v1.43h-7.98zm14 5.2c-.806 0-1.483-.147-2.03-.44-.54-.3-.95-.694-1.23-1.18a3.213 3.213 0 0 1-.41-1.6c0-.567.108-1.057.32-1.47.22-.42.527-.767.92-1.04.394-.28.864-.5 1.41-.66a16.18 16.18 0 0 1 1.72-.36c.64-.107 1.287-.204 1.94-.29.654-.087 1.264-.17 1.83-.25l-.64.37c.02-.96-.172-1.67-.58-2.13-.4-.46-1.093-.69-2.08-.69-.653 0-1.226.15-1.72.45-.486.293-.83.773-1.03 1.44l-1.69-.51c.26-.947.764-1.69 1.51-2.23.748-.54 1.73-.81 2.95-.81.98 0 1.82.176 2.52.53a3.076 3.076 0 0 1 1.52 1.58c.154.333.25.696.29 1.09.04.386.06.793.06 1.22v6.68h-1.58v-2.59l.37.24c-.406.873-.976 1.533-1.71 1.98-.726.446-1.612.67-2.66.67zm.27-1.49c.64 0 1.194-.114 1.66-.34a3.19 3.19 0 0 0 1.14-.91 2.96 2.96 0 0 0 .56-1.24c.1-.334.154-.704.16-1.11.014-.414.02-.73.02-.95l.62.27c-.58.08-1.15.156-1.71.23-.56.073-1.09.153-1.59.24-.5.08-.95.176-1.35.29-.293.093-.57.213-.83.36-.252.146-.46.336-.62.57-.153.226-.23.51-.23.85 0 .293.074.573.22.84.154.266.388.483.7.65.32.166.737.25 1.25.25zm8.11 1.19v-14.7h1.78v14.7h-1.78zm14.815 0a8.073 8.073 0 0 1-1.9.15 4.23 4.23 0 0 1-1.66-.37 2.4 2.4 0 0 1-1.11-1.08 3.204 3.204 0 0 1-.35-1.29 50.83 50.83 0 0 1-.02-1.49v-9.72h1.78v9.64c0 .44.004.816.01 1.13.014.313.084.583.21.81.24.426.62.676 1.14.75.527.073 1.16.053 1.9-.06v1.53zm-7.23-9.33v-1.47h7.23v1.47h-7.23zm9.623-3.38v-1.84h1.78v1.84h-1.78zm0 12.71v-10.8h1.78v10.8h-1.78zm17.69 0 .01-6.91c0-.807-.216-1.437-.65-1.89-.426-.46-.983-.69-1.67-.69-.4 0-.78.093-1.14.28-.36.18-.653.466-.88.86-.226.386-.34.883-.34 1.49l-.94-.38c-.013-.767.144-1.437.47-2.01.334-.58.787-1.03 1.36-1.35.574-.32 1.22-.48 1.94-.48 1.127 0 2.014.343 2.66 1.03.647.68.97 1.596.97 2.75l-.01 7.3h-1.78zm-12.92 0v-10.8h1.59v2.89h.2v7.91h-1.79zm6.47 0 .01-6.84c0-.827-.213-1.474-.64-1.94-.426-.474-.993-.71-1.7-.71-.7 0-1.266.24-1.7.72-.433.48-.65 1.116-.65 1.91l-.94-.56c0-.7.167-1.327.5-1.88a3.54 3.54 0 0 1 1.36-1.3c.574-.32 1.224-.48 1.95-.48.727 0 1.36.153 1.9.46.54.306.957.746 1.25 1.32.294.566.44 1.243.44 2.03l-.01 7.27h-1.77zm15.427.3c-1.06 0-1.986-.234-2.78-.7a4.912 4.912 0 0 1-1.84-1.97c-.44-.847-.66-1.834-.66-2.96 0-1.18.217-2.2.65-3.06.434-.867 1.037-1.534 1.81-2 .78-.474 1.694-.71 2.74-.71 1.087 0 2.01.25 2.77.75.767.5 1.34 1.213 1.72 2.14.387.926.554 2.03.5 3.31h-1.8v-.64c-.02-1.327-.29-2.317-.81-2.97-.52-.66-1.293-.99-2.32-.99-1.1 0-1.936.353-2.51 1.06-.573.706-.86 1.72-.86 3.04 0 1.273.287 2.26.86 2.96.574.7 1.39 1.05 2.45 1.05.714 0 1.334-.164 1.86-.49.527-.327.94-.797 1.24-1.41l1.71.59c-.42.953-1.053 1.693-1.9 2.22-.84.52-1.783.78-2.83.78zm-3.99-5.2v-1.43h7.98v1.43h-7.98zm28.041 4.9.01-6.91c0-.807-.217-1.437-.65-1.89-.427-.46-.984-.69-1.67-.69-.4 0-.78.093-1.14.28a2.09 2.09 0 0 0-.88.86c-.227.386-.34.883-.34 1.49l-.94-.38c-.014-.767.143-1.437.47-2.01.333-.58.786-1.03 1.36-1.35.573-.32 1.22-.48 1.94-.48 1.126 0 2.013.343 2.66 1.03.646.68.97 1.596.97 2.75l-.01 7.3h-1.78zm-12.92 0v-10.8h1.59v2.89h.2v7.91h-1.79zm6.47 0 .01-6.84c0-.827-.214-1.474-.64-1.94-.427-.474-.994-.71-1.7-.71-.7 0-1.267.24-1.7.72-.434.48-.65 1.116-.65 1.91l-.94-.56c0-.7.166-1.327.5-1.88a3.527 3.527 0 0 1 1.36-1.3c.573-.32 1.223-.48 1.95-.48.726 0 1.36.153 1.9.46.54.306.956.746 1.25 1.32.293.566.44 1.243.44 2.03l-.01 7.27h-1.77zm15.347.3c-1.074 0-2-.244-2.78-.73-.774-.487-1.37-1.16-1.79-2.02-.42-.86-.63-1.847-.63-2.96 0-1.134.213-2.127.64-2.98a4.75 4.75 0 0 1 1.81-1.99c.78-.48 1.696-.72 2.75-.72 1.08 0 2.01.243 2.79.73.78.48 1.376 1.15 1.79 2.01.42.853.63 1.836.63 2.95 0 1.126-.21 2.12-.63 2.98a4.832 4.832 0 0 1-1.8 2.01c-.78.48-1.707.72-2.78.72zm0-1.69c1.12 0 1.953-.374 2.5-1.12.546-.747.82-1.714.82-2.9 0-1.22-.277-2.19-.83-2.91-.554-.727-1.384-1.09-2.49-1.09-.754 0-1.374.17-1.86.51-.487.34-.85.81-1.09 1.41-.24.6-.36 1.293-.36 2.08 0 1.213.28 2.186.84 2.92.56.733 1.383 1.1 2.47 1.1zm15.101 1.39v-5.41c0-.514-.046-1.007-.14-1.48a3.683 3.683 0 0 0-.47-1.27c-.22-.38-.52-.68-.9-.9-.373-.22-.846-.33-1.42-.33-.446 0-.853.076-1.22.23-.36.146-.67.373-.93.68-.26.306-.463.693-.61 1.16-.14.46-.21 1.003-.21 1.63l-1.17-.36c0-1.047.187-1.944.56-2.69.38-.754.91-1.33 1.59-1.73.687-.407 1.494-.61 2.42-.61.7 0 1.297.11 1.79.33.494.22.904.513 1.23.88.327.36.584.766.77 1.22.187.446.317.903.39 1.37.08.46.12.896.12 1.31v5.97h-1.8zm-7.7 0v-10.8h1.6v2.89h.2v7.91h-1.8zm12.3-12.71v-1.84h1.78v1.84h-1.78zm0 12.71v-10.8h1.78v10.8h-1.78zm10.811 0a8.077 8.077 0 0 1-1.9.15c-.62-.02-1.174-.144-1.66-.37a2.39 2.39 0 0 1-1.11-1.08 3.188 3.188 0 0 1-.35-1.29c-.014-.44-.02-.937-.02-1.49v-9.72h1.78v9.64c0 .44.003.816.01 1.13.013.313.083.583.21.81.24.426.62.676 1.14.75.526.073 1.16.053 1.9-.06v1.53zm-7.23-9.33v-1.47h7.23v1.47h-7.23zm13.573 9.63c-1.073 0-2-.244-2.78-.73a4.842 4.842 0 0 1-1.79-2.02c-.42-.86-.63-1.847-.63-2.96 0-1.134.214-2.127.64-2.98.427-.854 1.03-1.517 1.81-1.99.78-.48 1.697-.72 2.75-.72 1.08 0 2.01.243 2.79.73.78.48 1.377 1.15 1.79 2.01.42.853.63 1.836.63 2.95 0 1.126-.21 2.12-.63 2.98a4.832 4.832 0 0 1-1.8 2.01c-.78.48-1.706.72-2.78.72zm0-1.69c1.12 0 1.954-.374 2.5-1.12.547-.747.82-1.714.82-2.9 0-1.22-.276-2.19-.83-2.91-.553-.727-1.383-1.09-2.49-1.09-.753 0-1.373.17-1.86.51-.486.34-.85.81-1.09 1.41-.24.6-.36 1.293-.36 2.08 0 1.213.28 2.186.84 2.92.56.733 1.384 1.1 2.47 1.1zm7.412 1.39v-10.8h1.59v2.61l-.26-.34c.127-.334.29-.64.49-.92.207-.28.437-.51.69-.69.28-.227.597-.4.95-.52a4.02 4.02 0 0 1 1.08-.21c.367-.027.71-.004 1.03.07v1.67a3.366 3.366 0 0 0-1.23-.08c-.447.046-.86.21-1.24.49a2.652 2.652 0 0 0-.81.9 3.877 3.877 0 0 0-.39 1.15c-.073.406-.11.823-.11 1.25v5.42h-1.79zm7.661-12.71v-1.84h1.78v1.84h-1.78zm0 12.71v-10.8h1.78v10.8h-1.78zm12.47 0v-5.41c0-.514-.046-1.007-.14-1.48a3.683 3.683 0 0 0-.47-1.27c-.22-.38-.52-.68-.9-.9-.373-.22-.846-.33-1.42-.33-.446 0-.853.076-1.22.23-.36.146-.67.373-.93.68-.26.306-.463.693-.61 1.16-.14.46-.21 1.003-.21 1.63l-1.17-.36c0-1.047.187-1.944.56-2.69.38-.754.91-1.33 1.59-1.73.687-.407 1.494-.61 2.42-.61.7 0 1.297.11 1.79.33.494.22.904.513 1.23.88.327.36.584.766.77 1.22.187.446.317.903.39 1.37.08.46.12.896.12 1.31v5.97h-1.8zm-7.7 0v-10.8h1.6v2.89h.2v7.91h-1.8zm16.47 5.1c-.567 0-1.12-.087-1.66-.26a4.804 4.804 0 0 1-1.49-.79 4.34 4.34 0 0 1-1.12-1.32l1.63-.86c.267.526.643.91 1.13 1.15.493.24 1 .36 1.52.36.687 0 1.257-.127 1.71-.38a2.233 2.233 0 0 0 1-1.11c.22-.494.327-1.107.32-1.84v-2.95h.21v-7.9h1.58v10.87c0 .293-.01.576-.03.85a5.499 5.499 0 0 1-.1.81c-.14.766-.417 1.396-.83 1.89-.413.5-.947.87-1.6 1.11-.653.246-1.41.37-2.27.37zm-.13-4.8c-1.007 0-1.87-.25-2.59-.75-.72-.507-1.277-1.19-1.67-2.05-.387-.86-.58-1.83-.58-2.91s.193-2.05.58-2.91c.393-.86.95-1.537 1.67-2.03.72-.5 1.58-.75 2.58-.75 1.02 0 1.877.246 2.57.74.693.493 1.217 1.17 1.57 2.03.36.86.54 1.833.54 2.92 0 1.073-.18 2.043-.54 2.91-.353.86-.877 1.543-1.57 2.05-.693.5-1.547.75-2.56.75zm.22-1.63c.727 0 1.323-.174 1.79-.52.467-.354.81-.837 1.03-1.45.227-.62.34-1.324.34-2.11 0-.8-.113-1.504-.34-2.11-.22-.614-.56-1.09-1.02-1.43-.46-.347-1.043-.52-1.75-.52-.733 0-1.34.18-1.82.54-.473.36-.827.846-1.06 1.46-.227.613-.34 1.3-.34 2.06 0 .766.117 1.46.35 2.08.233.613.583 1.1 1.05 1.46.473.36 1.063.54 1.77.54z"/><defs><linearGradient id="b" x1="275.694" x2="275.694" y1=".81" y2="550.81" gradientUnits="userSpaceOnUse"><stop stop-color="#0D0E12"/><stop offset="1" stop-color="#0D0E12"/></linearGradient><linearGradient id="f" x1="278.41" x2="278.41" y1="125.814" y2="550.81" gradientUnits="userSpaceOnUse"><stop stop-color="#151515"/><stop offset="1" stop-color="#0D0E12"/></linearGradient><linearGradient id="g" x1="278.41" x2="278.41" y1="125.814" y2="550.81" gradientUnits="userSpaceOnUse"><stop stop-color="#FFF7F7"/><stop offset="1" stop-color="#FFF7F7" stop-opacity="0"/></linearGradient><linearGradient id="h" x1="278.41" x2="278.41" y1="208.81" y2="550.81" gradientUnits="userSpaceOnUse"><stop stop-color="#3F3B3D"/><stop offset="1" stop-color="#0D0E12" stop-opacity="0"/></linearGradient><linearGradient id="i" x1="278.41" x2="278.41" y1="208.81" y2="550.81" gradientUnits="userSpaceOnUse"><stop stop-color="#fff"/><stop offset="1" stop-color="#fff" stop-opacity="0"/></linearGradient><linearGradient id="l" x1="482.132" x2="398.279" y1="125.81" y2="125.81" gradientUnits="userSpaceOnUse"><stop stop-color="#DC1F48" stop-opacity="0"/><stop offset=".425" stop-color="#DC1F48"/><stop offset="1" stop-color="#DC1F48" stop-opacity="0"/></linearGradient><linearGradient id="n" x1="275.694" x2="275.694" y1="91.072" y2="27.184" gradientUnits="userSpaceOnUse"><stop stop-color="#0E0F12" stop-opacity="0"/><stop offset="1" stop-color="#0E0F12"/></linearGradient><linearGradient id="p" x1="278.41" x2="278.41" y1="482.343" y2="524.436" gradientUnits="userSpaceOnUse"><stop stop-color="#0E0F12" stop-opacity="0"/><stop offset="1" stop-color="#0E0F12"/></linearGradient><filter id="e" width="755.768" height="739.384" x="-102.19" y="-39.19" color-interpolation-filters="sRGB" filterUnits="userSpaceOnUse"><feFlood flood-opacity="0" result="BackgroundImageFix"/><feBlend in="SourceGraphic" in2="BackgroundImageFix" result="shape"/><feGaussianBlur result="effect1_foregroundBlur_3446_30023" stdDeviation="100"/></filter><filter id="k" width="102" height="6" x="398.694" y="123.81" color-interpolation-filters="sRGB" filterUnits="userSpaceOnUse"><feFlood flood-opacity="0" result="BackgroundImageFix"/><feBlend in="SourceGraphic" in2="BackgroundImageFix" result="shape"/><feGaussianBlur result="effect1_foregroundBlur_3446_30023" stdDeviation="1"/></filter><filter id="m" width="602" height="142.262" x="-25.306" y="-25.19" color-interpolation-filters="sRGB" filterUnits="userSpaceOnUse"><feFlood flood-opacity="0" result="BackgroundImageFix"/><feBlend in="SourceGraphic" in2="BackgroundImageFix" result="shape"/><feGaussianBlur result="effect1_foregroundBlur_3446_30023" stdDeviation="13"/></filter><filter id="o" width="602" height="142.262" x="-22.59" y="434.547" color-interpolation-filters="sRGB" filterUnits="userSpaceOnUse"><feFlood flood-opacity="0" result="BackgroundImageFix"/><feBlend in="SourceGraphic" in2="BackgroundImageFix" result="shape"/><feGaussianBlur result="effect1_foregroundBlur_3446_30023" stdDeviation="13"/></filter><radialGradient id="c" cx="0" cy="0" r="1" gradientTransform="rotate(90 -.058 275.752) scale(239.317)" gradientUnits="userSpaceOnUse"><stop stop-color="#0D0E12"/><stop offset="1" stop-color="#282B39" stop-opacity="0"/></radialGradient><radialGradient id="j" cx="0" cy="0" r="1" gradientTransform="rotate(173.047 203.32 139.056) scale(360.7 1861.67)" gradientUnits="userSpaceOnUse"><stop stop-color="#fff"/><stop offset="1" stop-color="#fff" stop-opacity="0"/></radialGradient><clipPath id="a"><rect width="550" height="550" x=".694" y=".81" fill="#fff" rx="10"/></clipPath></defs></svg>